M48
INCH
T01C0.0157
T02C0.0191
T03C0.0197
T04C0.0354
T05C0.04
T06C0.0689
%
T01
X+042893Y+035784
X+043362Y+035760
X+043149Y+035341
X+043618Y+035316
X+043405Y+034898
T02
X+015643Y+049284
X+018081Y+049284
X+019393Y+051472
X+020057Y+052974
X+018206Y+053409
X+021706Y+055347
X+022768Y+053409
X+025393Y+053409
X+027081Y+053472
X+026518Y+055347
X+029456Y+053347
X+028706Y+051534
X+026393Y+051284
X+025643Y+048034
X+024081Y+048847
X+022518Y+048034
X+023331Y+046034
X+022643Y+045722
X+024206Y+045347
X+025331Y+045972
X+028831Y+047034
X+030018Y+049159
X+031206Y+047747
X+032456Y+049159
X+035331Y+049222
X+037212Y+047722
X+036706Y+046447
X+037768Y+045097
X+035456Y+045034
X+032456Y+045034
X+030143Y+044972
X+032393Y+040909
X+033706Y+038597
X+034518Y+038597
X+035081Y+038909
X+035956Y+038034
X+035956Y+037409
X+036706Y+036849
X+036456Y+035784
X+035893Y+035784
X+034331Y+034784
X+033268Y+034534
X+032581Y+035347
X+032581Y+035972
X+031956Y+035972
X+031956Y+035347
X+033832Y+036097
X+032393Y+037597
X+029456Y+035847
X+029206Y+035284
X+029831Y+035284
X+027706Y+034534
X+027143Y+035847
X+027393Y+037284
X+027393Y+038659
X+027393Y+039347
X+028206Y+039347
X+028206Y+038659
X+025143Y+034847
X+026143Y+031533
X+027768Y+031222
X+028143Y+030597
X+029206Y+030409
X+030268Y+028534
X+030768Y+026100
X+030768Y+025409
X+030768Y+024784
X+030768Y+024159
X+030768Y+023534
X+031456Y+023034
X+031706Y+023722
X+033456Y+023097
X+034081Y+022202
X+034018Y+021409
X+033331Y+021409
X+031706Y+021159
X+035143Y+022472
X+035581Y+022909
X+036018Y+023347
X+034143Y+024597
X+034706Y+025472
X+034412Y+026145
X+033831Y+026284
X+033143Y+026222
X+032956Y+025155
X+032280Y+026983
X+033893Y+027722
X+033143Y+028534
X+032518Y+030409
X+033081Y+031222
X+034456Y+031222
X+034393Y+033159
X+035018Y+033159
X+036456Y+032159
X+036643Y+031284
X+036643Y+030097
X+035518Y+027597
X+035587Y+026915
X+036518Y+027034
X+036581Y+026284
X+038206Y+022284
X+037768Y+015097
X+039018Y+013159
X+036706Y+012447
X+037768Y+010972
X+035456Y+010909
X+032518Y+011034
X+030206Y+010972
X+030581Y+012534
X+030956Y+013747
X+030081Y+015159
X+032518Y+015159
X+035331Y+015097
X+042456Y+014222
X+043581Y+014784
X+045331Y+014034
X+045331Y+012159
X+043768Y+011222
X+042206Y+012097
X+041268Y+008659
X+042143Y+006847
X+040831Y+006597
X+041393Y+005034
X+038081Y+006909
X+039206Y+008847
X+045018Y+006847
X+046206Y+004909
X+047768Y+007222
X+048518Y+008784
X+049581Y+006847
X+046206Y+008972
X+049831Y+010909
X+052143Y+010972
X+050855Y+013747
X+049706Y+015097
X+048588Y+013015
X+052143Y+015097
X+048581Y+017472
X+047518Y+018347
X+046706Y+019472
X+045268Y+019347
X+046393Y+021284
X+047831Y+023909
X+049802Y+023370
X+051143Y+022034
X+051893Y+023847
X+051206Y+026222
X+048956Y+025847
X+045456Y+028159
X+045456Y+029159
X+045456Y+030097
X+045456Y+031097
X+045393Y+032159
X+048831Y+034347
X+049581Y+035784
X+050893Y+036034
X+052206Y+036284
X+051143Y+038222
X+049581Y+040909
X+047768Y+041472
X+048518Y+042847
X+049831Y+044972
X+052143Y+045034
X+050831Y+047747
X+049706Y+049159
X+052143Y+049159
X+048456Y+051472
X+049206Y+053284
X+046956Y+053472
X+045143Y+053347
X+046278Y+051529
X+043768Y+048972
X+045268Y+048034
X+044893Y+047034
X+043331Y+045409
X+042456Y+046097
X+042143Y+047909
X+041338Y+051210
X+042331Y+053284
X+041268Y+055222
X+039706Y+053097
X+038956Y+051347
X+037768Y+053284
X+037768Y+049222
X+036268Y+040972
X+037206Y+040034
X+037456Y+039034
X+039393Y+039034
X+040081Y+039722
X+040956Y+039722
X+040518Y+040659
X+045018Y+040909
X+046206Y+038972
X+047643Y+036284
X+053393Y+031909
X+052268Y+030597
X+052268Y+029597
X+053518Y+028347
X+055206Y+029284
X+055143Y+030972
X+058331Y+030159
X+059581Y+032222
X+060706Y+030722
X+062018Y+032222
X+062018Y+028097
X+059706Y+028034
X+058393Y+025722
X+057518Y+024347
X+059456Y+023784
X+056081Y+021847
X+054893Y+023784
X+056064Y+026093
X+056018Y+034284
X+056456Y+036472
X+055018Y+036284
X+056143Y+038222
X+059081Y+036222
X+058331Y+034409
X+045893Y+043347
X+048206Y+047097
X+046268Y+055284
X+040393Y+032472
X+031393Y+032034
X+030831Y+032034
X+030893Y+032597
X+025393Y+029659
X+022581Y+028159
X+022143Y+029097
X+021518Y+029597
X+021518Y+030409
X+022206Y+030159
X+022206Y+031097
X+022581Y+032097
X+019018Y+034472
X+019768Y+036284
X+021706Y+039097
X+022456Y+040909
X+021322Y+041034
X+019518Y+042909
X+018393Y+040972
X+016831Y+038284
X+015706Y+036347
X+016518Y+034097
X+014268Y+031909
X+012643Y+030972
X+012706Y+029159
X+014456Y+028284
X+015768Y+029284
X+015831Y+030659
X+012072Y+033931
X+012956Y+036222
X+011893Y+038159
X+010206Y+035847
X+009581Y+034284
X+008393Y+036222
X+008206Y+032222
X+005768Y+032222
X+007102Y+029502
X+008206Y+028097
X+005893Y+028034
X+009581Y+025784
X+008456Y+023847
X+011268Y+023534
X+012518Y+023784
X+011768Y+021972
X+012081Y+026159
X+015581Y+023909
X+017115Y+024242
X+018081Y+024659
X+019081Y+025847
X+020143Y+023909
X+021643Y+021159
X+022706Y+019222
X+021893Y+017097
X+019967Y+018692
X+019331Y+017284
X+018143Y+019222
X+016768Y+021972
X+015643Y+015097
X+018081Y+015097
X+019643Y+013034
X+018081Y+010972
X+016956Y+012472
X+015768Y+010909
X+019518Y+008784
X+018393Y+006847
X+021140Y+006564
X+022456Y+006784
X+021706Y+004972
X+021831Y+008972
X+022581Y+012034
X+024081Y+011222
X+025893Y+012472
X+025518Y+014222
X+024206Y+014784
X+022518Y+014034
X+026518Y+008909
X+028143Y+007409
X+028893Y+008784
X+029956Y+006847
X+026581Y+004909
X+025393Y+006847
X+027706Y+022222
X+027893Y+026347
X+028518Y+026347
X+026956Y+026347
X+026268Y+026347
X+009768Y+030097
X+015768Y+045097
X+017077Y+046447
X+018081Y+045159
X+019706Y+047097
X+021956Y+050847
X+049331Y+019284
T03
X+042665Y+036687G85X+042376Y+036520
X+044073Y+034249G85X+043783Y+034082
T04
X+041893Y+033472
X+042893Y+033472
X+042893Y+032472
X+041893Y+032472
X+041893Y+031472
X+042893Y+031472
X+044581Y+031597
X+044581Y+030597
X+044581Y+029597
X+044581Y+028597
X+044581Y+027597
X+043393Y+025141
X+042893Y+024275
X+042393Y+023409
X+044581Y+032597
X+024581Y+032597
X+023581Y+032597
X+023581Y+031597
X+023581Y+030597
X+024581Y+030597
X+024581Y+029597
X+024581Y+028597
X+023581Y+028597
X+023581Y+029597
X+023581Y+027597
X+024581Y+027597
X+024581Y+031597
T05
X+034273Y+039472
X+029273Y+039472
T06
X+063268Y+030097
X+004581Y+030097
T00
M30
