G04 DipTrace 3.3.1.3*
G04 TopAssy.gbr*
%MOIN*%
G04 #@! TF.FileFunction,Drawing,Top*
G04 #@! TF.Part,Single*
%ADD22C,0.001312*%
%ADD24C,0.005*%
%FSLAX26Y26*%
G04*
G70*
G90*
G75*
G01*
G04 TopAssy*
%LPD*%
X3882497Y3073910D2*
D24*
X3927027Y3029378D1*
Y2914093D2*
X3882149Y2869192D1*
X3769710D2*
X3722293Y2916587D1*
Y3027989D2*
X3768215Y3073910D1*
X3882497Y2755160D2*
X3927027Y2710627D1*
Y2595342D2*
X3882149Y2550441D1*
X3769710D2*
X3722293Y2597837D1*
Y2709238D2*
X3768215Y2755160D1*
X3764912Y3189221D2*
X3720383Y3233753D1*
Y3349038D2*
X3765260Y3393939D1*
X3877700D2*
X3925116Y3346544D1*
Y3235142D2*
X3879194Y3189221D1*
X1895579Y5609690D2*
D22*
X4895579Y415941D1*
X3851829D2*
X5876829Y3909690D1*
X5414329Y1309690D2*
X1376829D1*
X3858080Y5609690D2*
X5883079Y2115941D1*
X4895579Y5609690D2*
X1895579Y409690D1*
X2926829D2*
X914329Y3903441D1*
X901829Y2115941D2*
X2926829Y5609690D1*
X389329Y3009690D2*
X6395579D1*
X1370579Y4709690D2*
X5414329D1*
M02*
