G04 DipTrace 3.3.1.3*
G04 TopDimension.gbr*
%MOIN*%
G04 #@! TF.FileFunction,Drawing,Top*
G04 #@! TF.Part,Single*
%ADD14C,0.001378*%
%ADD105C,0.006176*%
%FSLAX26Y26*%
G04*
G70*
G90*
G75*
G01*
G04 TopDimension*
%LPD*%
X2458080Y3259690D2*
D14*
Y4279375D1*
X4458080Y3259690D2*
Y4279375D1*
X3458080Y4259690D2*
X2497450D1*
G36*
X2458080D2*
X2497450Y4267564D1*
Y4251816D1*
X2458080Y4259690D1*
G37*
X3458080D2*
D14*
X4418710D1*
G36*
X4458080D2*
X4418710Y4251816D1*
Y4267564D1*
X4458080Y4259690D1*
G37*
X3423495Y4312049D2*
D105*
X3404394D1*
X3402493Y4294849D1*
X3404394Y4296750D1*
X3410142Y4298696D1*
X3415846D1*
X3421594Y4296750D1*
X3425441Y4292948D1*
X3427342Y4287200D1*
Y4283397D1*
X3425441Y4277649D1*
X3421594Y4273802D1*
X3415846Y4271901D1*
X3410142D1*
X3404394Y4273802D1*
X3402493Y4275748D1*
X3400548Y4279550D1*
X3451190Y4312049D2*
X3445442Y4310148D1*
X3441595Y4304400D1*
X3439694Y4294849D1*
Y4289101D1*
X3441595Y4279550D1*
X3445442Y4273802D1*
X3451190Y4271901D1*
X3454992D1*
X3460740Y4273802D1*
X3464543Y4279550D1*
X3466488Y4289101D1*
Y4294849D1*
X3464543Y4304400D1*
X3460740Y4310148D1*
X3454992Y4312049D1*
X3451190D1*
X3464543Y4304400D2*
X3441595Y4279550D1*
X3480741Y4275748D2*
X3478840Y4273802D1*
X3480741Y4271901D1*
X3482686Y4273802D1*
X3480741Y4275748D1*
X3504588Y4312049D2*
X3498885Y4310148D1*
X3496939Y4306345D1*
Y4302498D1*
X3498885Y4298696D1*
X3502687Y4296750D1*
X3510336Y4294849D1*
X3516084Y4292948D1*
X3519887Y4289101D1*
X3521788Y4285298D1*
Y4279550D1*
X3519887Y4275748D1*
X3517986Y4273802D1*
X3512238Y4271901D1*
X3504588D1*
X3498885Y4273802D1*
X3496939Y4275748D1*
X3495038Y4279550D1*
Y4285298D1*
X3496939Y4289101D1*
X3500786Y4292948D1*
X3506490Y4294849D1*
X3514139Y4296750D1*
X3517986Y4298696D1*
X3519887Y4302498D1*
Y4306345D1*
X3517986Y4310148D1*
X3512238Y4312049D1*
X3504588D1*
M02*
