G04 DipTrace 3.3.1.3*
G04 TopMask.gbr*
%MOIN*%
G04 #@! TF.FileFunction,Soldermask,Top*
G04 #@! TF.Part,Single*
%AMOUTLINE1*
4,1,4,
0.044542,0.002783,
-0.002783,-0.044542,
-0.044542,-0.002783,
0.002783,0.044542,
0.044542,0.002783,
0*%
%AMOUTLINE4*
4,1,4,
-0.042303,-0.014218,
-0.008839,0.043746,
0.042303,0.014218,
0.008839,-0.043746,
-0.042303,-0.014218,
0*%
%AMOUTLINE7*
4,1,4,
-0.008839,-0.043746,
-0.042303,0.014218,
0.008839,0.043746,
0.042303,-0.014218,
-0.008839,-0.043746,
0*%
%AMOUTLINE10*
4,1,16,
0.024717,-0.008459,
0.030839,-0.00278,
0.034056,0.005416,
0.033398,0.014198,
0.028994,0.021824,
0.021719,0.026784,
0.013012,0.028097,
0.005032,0.025635,
-0.024717,0.008459,
-0.030839,0.00278,
-0.034056,-0.005416,
-0.033398,-0.014198,
-0.028994,-0.021824,
-0.021719,-0.026784,
-0.013012,-0.028097,
-0.005032,-0.025635,
0.024717,-0.008459,
0*%
%AMOUTLINE13*
4,1,4,
-0.045714,-0.012249,
-0.012249,0.045714,
0.045714,0.012249,
0.012249,-0.045714,
-0.045714,-0.012249,
0*%
%AMOUTLINE16*
4,1,4,
0.003725,-0.040793,
-0.037189,-0.017171,
-0.003725,0.040793,
0.037189,0.017171,
0.003725,-0.040793,
0*%
%AMOUTLINE19*
4,1,4,
-0.037189,0.017171,
0.003725,0.040793,
0.037189,-0.017171,
-0.003725,-0.040793,
-0.037189,0.017171,
0*%
%AMOUTLINE22*
4,1,4,
-0.033465,-0.023622,
-0.033465,0.023622,
0.033465,0.023622,
0.033465,-0.023622,
-0.033465,-0.023622,
0*%
%AMOUTLINE25*
4,1,4,
0.046631,0.003473,
-0.003486,-0.046629,
-0.046631,-0.003473,
0.003486,0.046629,
0.046631,0.003473,
0*%
%ADD12C,0.003*%
%ADD25R,0.03937X0.047244*%
%ADD54R,0.059055X0.03937*%
%ADD57C,0.068898*%
%ADD63R,0.066929X0.047244*%
%ADD64R,0.074803X0.027559*%
%ADD66R,0.027559X0.074803*%
%ADD68R,0.03937X0.07874*%
%ADD70R,0.086614X0.031496*%
%ADD72R,0.033465X0.049213*%
%ADD74R,0.059055X0.047244*%
%ADD77R,0.066929X0.041732*%
%ADD79R,0.064961X0.055118*%
%ADD81C,0.066929*%
%ADD83R,0.066929X0.066929*%
%ADD85C,0.037402*%
%ADD87R,0.112205X0.076772*%
%ADD89R,0.055118X0.055118*%
%ADD91R,0.031496X0.047244*%
%ADD93R,0.114173X0.070866*%
%ADD95R,0.070866X0.114173*%
%ADD97R,0.059055X0.066929*%
%ADD99R,0.066929X0.059055*%
%ADD101R,0.047244X0.055118*%
%ADD103O,0.097874X0.087874*%
%ADD109OUTLINE1*%
%ADD112OUTLINE4*%
%ADD115OUTLINE7*%
%ADD118OUTLINE10*%
%ADD121OUTLINE13*%
%ADD124OUTLINE16*%
%ADD127OUTLINE19*%
%ADD130OUTLINE22*%
%ADD133OUTLINE25*%
%FSLAX26Y26*%
G04*
G70*
G90*
G75*
G01*
G04 TopMask*
%LPD*%
D103*
X3427329Y3947180D3*
X2927329D3*
D25*
X3751829Y2853441D3*
Y3089661D3*
X3897499Y2853441D3*
Y3089661D3*
X3751829Y2534690D3*
Y2770911D3*
X3897499Y2534690D3*
Y2770911D3*
D101*
X3895580Y3409690D3*
Y3173470D3*
X3749911Y3409690D3*
Y3173470D3*
D99*
X2851934Y2928546D3*
Y3003349D3*
X2733080Y3265941D3*
Y3340744D3*
X2926829Y2559691D3*
Y2484887D3*
X2676934Y2934795D3*
Y3009598D3*
X2695579Y2559691D3*
Y2484887D3*
D97*
X3189330Y2778440D3*
X3114527D3*
D99*
X2814329Y3265941D3*
Y3340744D3*
D97*
X2939329Y3797190D3*
X2864526D3*
X4120579Y3734690D3*
X4045776D3*
D95*
X4120580Y3884690D3*
X4010344D3*
D99*
X3170580Y3947190D3*
Y3872387D3*
D93*
X3276829Y3953441D3*
Y3843205D3*
D97*
X3820580Y4090941D3*
X3895383D3*
D95*
X3821711Y3989808D3*
X3931948D3*
D97*
X3408079Y2253441D3*
X3333276D3*
D99*
X3445580Y2828441D3*
Y2903244D3*
D109*
X3601829Y2134691D3*
X3548935Y2187584D3*
X3745579Y2365941D3*
X3798473Y2313047D3*
D99*
X3564329Y3403441D3*
Y3478244D3*
D112*
X1949550Y3997093D3*
X2014331Y3959691D3*
D99*
X3508080Y4747190D3*
Y4672387D3*
D115*
X4964329Y3778441D3*
X4899549Y3741039D3*
D112*
X4833080Y2028440D3*
X4768299Y2065842D3*
D99*
X3283080Y1272190D3*
Y1346993D3*
D115*
X1826829Y2247191D3*
X1891610Y2284592D3*
D99*
X1533080Y4747190D3*
Y4672387D3*
D115*
X3976829Y5484690D3*
X3912049Y5447288D3*
D112*
X5814329Y3734691D3*
X5749549Y3772092D3*
D99*
X5251829Y1272190D3*
Y1346993D3*
D115*
X2808080Y540940D3*
X2872861Y578342D3*
D112*
X958080Y2284690D3*
X1022861Y2247288D3*
D115*
X2014329Y5484690D3*
X1949549Y5447288D3*
D112*
X4839329Y5440940D3*
X4774549Y5478342D3*
D99*
X6226829Y2972190D3*
Y3046993D3*
D115*
X4776829Y540940D3*
X4841610Y578342D3*
D112*
X1945580Y565941D3*
X2010361Y528539D3*
D99*
X558080Y3047190D3*
Y2972387D3*
D112*
X2876829Y5447191D3*
X2812049Y5484592D3*
D99*
X5245580Y4672190D3*
Y4746993D3*
D115*
X5764329Y2247191D3*
X5829110Y2284592D3*
D112*
X3901829Y559690D3*
X3966610Y522288D3*
D99*
X1539329Y1347190D3*
Y1272387D3*
D115*
X1033080Y3778441D3*
X968299Y3741039D3*
D99*
X3276829Y4672190D3*
Y4746993D3*
D115*
X4776829Y3953440D3*
X4841610Y3990842D3*
D112*
X4895580Y2284690D3*
X4960361Y2247288D3*
D99*
X3508080Y1347190D3*
Y1272387D3*
D115*
X2014329Y2065941D3*
X1949549Y2028539D3*
D112*
X1883080Y3734691D3*
X1818299Y3772092D3*
D97*
X2995580Y2178441D3*
X3070383D3*
D91*
X2983080Y2972190D3*
Y2921009D3*
X3045580Y2922190D3*
Y2973371D3*
D97*
X3014329Y4109690D3*
X3089133D3*
D89*
X3870580Y3603440D3*
X3980816D3*
D87*
X3839329Y3522190D3*
X4008621D3*
D57*
X6326829Y3009690D3*
X458080D3*
D85*
X4289329Y3578441D3*
X4336219Y3575963D3*
X4314920Y3534117D3*
X4361810Y3531640D3*
X4340510Y3489793D3*
D118*
X4252046Y3660339D3*
X4392794Y3416556D3*
D83*
X4189329Y3347190D3*
D81*
X4289329D3*
X4189329Y3247190D3*
X4289329D3*
X4189329Y3147190D3*
X4289329D3*
D121*
X4239329Y2340941D3*
D81*
X4289329Y2427543D3*
X4339329Y2514146D3*
D83*
X2458080Y3259690D3*
D81*
Y3159690D3*
Y3059690D3*
Y2959690D3*
Y2859690D3*
Y2759690D3*
D83*
X2358080Y3259690D3*
D81*
Y3159690D3*
Y3059690D3*
Y2959690D3*
Y2859690D3*
Y2759690D3*
D83*
X4458080Y3259690D3*
D81*
Y3159690D3*
Y3059690D3*
Y2959690D3*
Y2859690D3*
Y2759690D3*
D79*
X3520580Y2897190D3*
Y2830261D3*
D77*
X2901829Y3097190D3*
X2978601D3*
Y3183411D3*
X2901829D3*
D54*
X3270136Y3316383D3*
Y3359690D3*
D74*
X3122499Y3338037D3*
D72*
X3683080Y3940941D3*
X3608277D3*
X3645678Y3850390D3*
X3533080Y4003441D3*
X3607883D3*
X3570482Y4093992D3*
D97*
X3070383Y2259690D3*
X2995580D3*
D99*
X3258080Y2215940D3*
Y2141136D3*
D97*
X3270580Y3253441D3*
X3345383D3*
X3114329Y2853441D3*
X3189133D3*
D99*
X2651829Y3265941D3*
Y3340744D3*
X2776831Y2484692D3*
Y2559495D3*
X2851829Y2559690D3*
Y2484887D3*
X2620580Y2484692D3*
Y2559495D3*
X2533080Y2559690D3*
Y2484887D3*
X2676928Y3153343D3*
Y3078539D3*
X2976829Y3265941D3*
Y3340744D3*
X2895580Y3340940D3*
Y3266136D3*
D97*
X3114329Y2928441D3*
X3189133D3*
D99*
X3526829Y3759690D3*
Y3684887D3*
D97*
X3089329Y4040941D3*
X3014526D3*
D99*
X3445580Y3759690D3*
Y3684887D3*
X3889329Y3765940D3*
Y3691136D3*
X3814329Y3765940D3*
Y3691136D3*
X3645580Y3478440D3*
Y3403636D3*
D97*
X3189329Y3078440D3*
X3114526D3*
X3189329Y3003441D3*
X3114526D3*
D70*
X2639329Y2840941D3*
Y2790941D3*
Y2740941D3*
Y2690941D3*
X2851928D3*
Y2740941D3*
Y2790941D3*
Y2840941D3*
D68*
X2895580Y3653441D3*
X2945580D3*
X2995580D3*
X3045580D3*
D66*
X3283079Y2365941D3*
X3314575D3*
X3346071D3*
X3377567D3*
X3409063D3*
X3440559D3*
X3472055D3*
X3503551D3*
D64*
X3558669Y2421059D3*
Y2452555D3*
Y2484051D3*
Y2515547D3*
Y2547043D3*
Y2578539D3*
Y2610035D3*
Y2641531D3*
D66*
X3503551Y2696650D3*
X3472055D3*
X3440559D3*
X3409063D3*
X3377567D3*
X3346071D3*
X3314575D3*
X3283079D3*
D64*
X3227961Y2641531D3*
Y2610035D3*
Y2578539D3*
Y2547043D3*
Y2515547D3*
Y2484051D3*
Y2452555D3*
Y2421059D3*
D124*
X2077358Y4013696D3*
X1964844Y4078656D3*
X2173815Y4180764D3*
X2061301Y4245724D3*
D63*
X3592873Y4644730D3*
Y4774651D3*
X3785786Y4644730D3*
Y4774651D3*
D127*
X4914824Y3650744D3*
X5027339Y3715705D3*
X5011281Y3483676D3*
X5123795Y3548636D3*
D124*
X4701301Y2005685D3*
X4813815Y1940724D3*
X4604844Y1838617D3*
X4717358Y1773656D3*
D63*
X3185786Y1374651D3*
Y1244730D3*
X2992873Y1374651D3*
Y1244730D3*
D127*
X1863835Y2368636D3*
X1751320Y2303676D3*
X1767378Y2535705D3*
X1654864Y2470744D3*
D63*
X1622873Y4644730D3*
Y4774651D3*
X1815786Y4644730D3*
Y4774651D3*
D127*
X3924824Y5360744D3*
X4037339Y5425705D3*
X4021281Y5193676D3*
X4133795Y5258636D3*
D124*
X5681301Y3715685D3*
X5793815Y3650724D3*
X5584844Y3548617D3*
X5697358Y3483656D3*
D63*
X5155786Y1374651D3*
Y1244730D3*
X4962873Y1374651D3*
Y1244730D3*
D127*
X2853835Y667416D3*
X2741320Y602455D3*
X2757378Y834484D3*
X2644864Y769524D3*
D124*
X1097358Y2303696D3*
X984844Y2368656D3*
X1193815Y2470764D3*
X1081301Y2535724D3*
D127*
X1964824Y5360744D3*
X2077339Y5425705D3*
X2061281Y5193676D3*
X2173795Y5258636D3*
D124*
X4701301Y5425685D3*
X4813815Y5360724D3*
X4604844Y5258617D3*
X4717358Y5193656D3*
D63*
X6135786Y3074651D3*
Y2944730D3*
X5942873Y3074651D3*
Y2944730D3*
D127*
X4813835Y661167D3*
X4701320Y596206D3*
X4717378Y828235D3*
X4604864Y763274D3*
D124*
X2077358Y593696D3*
X1964844Y658656D3*
X2173815Y760764D3*
X2061301Y825724D3*
D63*
X642873Y2944730D3*
Y3074651D3*
X835786Y2944730D3*
Y3074651D3*
D124*
X2741301Y5425685D3*
X2853815Y5360724D3*
X2644844Y5258617D3*
X2757358Y5193656D3*
D63*
X5155786Y4774651D3*
Y4644730D3*
X4962873Y4774651D3*
Y4644730D3*
D127*
X5793835Y2368636D3*
X5681320Y2303676D3*
X5697378Y2535705D3*
X5584864Y2470744D3*
D124*
X4037358Y590226D3*
X3924844Y655186D3*
X4133815Y757294D3*
X4021301Y822255D3*
D130*
X1622873Y1244730D3*
Y1374651D3*
X1815786Y1244730D3*
Y1374651D3*
D127*
X984895Y3650744D3*
X1097409Y3715705D3*
X1081352Y3483676D3*
X1193866Y3548636D3*
D63*
X3185786Y4774651D3*
Y4644730D3*
X2992873Y4774651D3*
Y4644730D3*
D127*
X4813835Y4078636D3*
X4701320Y4013676D3*
X4717378Y4245705D3*
X4604864Y4180744D3*
D124*
X5027358Y2303696D3*
X4914844Y2368656D3*
X5123815Y2470764D3*
X5011301Y2535724D3*
D63*
X3592873Y1244730D3*
Y1374651D3*
X3785786Y1244730D3*
Y1374651D3*
D127*
X1964824Y1932024D3*
X2077339Y1996984D3*
X2061281Y1764955D3*
X2173795Y1829916D3*
D124*
X1751301Y3715685D3*
X1863815Y3650724D3*
X1654844Y3548617D3*
X1767358Y3483656D3*
D133*
X3664329Y2190940D3*
X3731154Y2257743D3*
X3681051Y2307861D3*
X3614227Y2241058D3*
X2712957Y2074715D2*
D12*
X2730957D1*
X2802957D2*
X2817957D1*
X3309957D2*
X3327957D1*
X3399957D2*
X3414957D1*
X3546957D2*
X3561957D1*
X3591957D2*
X3603957D1*
X3693957D2*
X3708957D1*
X4038957D2*
X4056957D1*
X2712957Y2071715D2*
X2730957D1*
X2802957D2*
X2817957D1*
X3309957D2*
X3327957D1*
X3399957D2*
X3414957D1*
X3546957D2*
X3561957D1*
X3591957D2*
X3603957D1*
X3693957D2*
X3708957D1*
X4038957D2*
X4056957D1*
X2712957Y2068715D2*
X2730957D1*
X2802957D2*
X2817957D1*
X3309957D2*
X3327957D1*
X3399957D2*
X3414957D1*
X3546957D2*
X3561957D1*
X3591957D2*
X3603957D1*
X3693957D2*
X3708957D1*
X4038957D2*
X4056957D1*
X2712957Y2065715D2*
X2730957D1*
X2802957D2*
X2817957D1*
X3309957D2*
X3327957D1*
X3399957D2*
X3414957D1*
X3546957D2*
X3561957D1*
X3591957D2*
X3603957D1*
X3693957D2*
X3708957D1*
X4038957D2*
X4056957D1*
X2712957Y2062715D2*
X2730957D1*
X2802957D2*
X2817957D1*
X3309957D2*
X3327957D1*
X3399957D2*
X3414957D1*
X3546957D2*
X3561957D1*
X3591957D2*
X3603957D1*
X3693957D2*
X3708957D1*
X4038957D2*
X4056957D1*
X2712957Y2059715D2*
X2730957D1*
X2802957D2*
X2817957D1*
X3309957D2*
X3327957D1*
X3399957D2*
X3414957D1*
X3546957D2*
X3561957D1*
X3591957D2*
X3603957D1*
X3693957D2*
X3708957D1*
X4038957D2*
X4056957D1*
X2712957Y2056715D2*
X2730957D1*
X2802957D2*
X2817957D1*
X3309957D2*
X3327957D1*
X3399957D2*
X3414957D1*
X3546957D2*
X3561957D1*
X3693957D2*
X3708957D1*
X4038957D2*
X4056957D1*
X2712957Y2053715D2*
X2730957D1*
X2802957D2*
X2817957D1*
X3309957D2*
X3327957D1*
X3399957D2*
X3414957D1*
X3546957D2*
X3561957D1*
X3693957D2*
X3708957D1*
X4038957D2*
X4056957D1*
X2712957Y2050715D2*
X2730957D1*
X2802957D2*
X2817957D1*
X3309957D2*
X3327957D1*
X3399957D2*
X3414957D1*
X3546957D2*
X3561957D1*
X3693957D2*
X3708957D1*
X4038957D2*
X4056957D1*
X2712957Y2047715D2*
X2730957D1*
X2802957D2*
X2817957D1*
X3309957D2*
X3327957D1*
X3399957D2*
X3414957D1*
X3546957D2*
X3561957D1*
X3693957D2*
X3708957D1*
X4038957D2*
X4056957D1*
X2712957Y2044715D2*
X2730957D1*
X2802957D2*
X2817957D1*
X3309957D2*
X3327957D1*
X3399957D2*
X3414957D1*
X3546957D2*
X3561957D1*
X3693957D2*
X3708957D1*
X4038957D2*
X4056957D1*
X2712957Y2041715D2*
X2730957D1*
X2802957D2*
X2817957D1*
X2871957D2*
X2901957D1*
X2982957D2*
X3003957D1*
X3087957D2*
X3108957D1*
X3309957D2*
X3327957D1*
X3399957D2*
X3414957D1*
X3468957D2*
X3492957D1*
X3546957D2*
X3561957D1*
X3654957D2*
X3675957D1*
X3693945D2*
X3708957D1*
X3762957D2*
X3792957D1*
X3954957D2*
X3981957D1*
X4038957D2*
X4056957D1*
X2712957Y2038715D2*
X2730957D1*
X2802957D2*
X2817957D1*
X2865161D2*
X2907715D1*
X2949957D2*
X2964957D1*
X2978449D2*
X3009367D1*
X3054957D2*
X3069957D1*
X3083449D2*
X3114367D1*
X3150957D2*
X3165957D1*
X3222957D2*
X3237957D1*
X3309957D2*
X3327957D1*
X3399957D2*
X3414957D1*
X3463546D2*
X3499752D1*
X3546957D2*
X3561957D1*
X3591957D2*
X3603957D1*
X3649546D2*
X3680465D1*
X3693831D2*
X3708957D1*
X3756161D2*
X3798715D1*
X3831957D2*
X3846957D1*
X3903957D2*
X3918957D1*
X3949187D2*
X3987367D1*
X4038957D2*
X4056957D1*
X2712957Y2035715D2*
X2730957D1*
X2802957D2*
X2817957D1*
X2859557D2*
X2912332D1*
X2949957D2*
X2965508D1*
X2974118D2*
X3014110D1*
X3054957D2*
X3070508D1*
X3079118D2*
X3119110D1*
X3152456D2*
X3167805D1*
X3221919D2*
X3236458D1*
X3309957D2*
X3327957D1*
X3399957D2*
X3414957D1*
X3458792D2*
X3505356D1*
X3546957D2*
X3561957D1*
X3591957D2*
X3603957D1*
X3644803D2*
X3684795D1*
X3693367D2*
X3708957D1*
X3750557D2*
X3803332D1*
X3833456D2*
X3848805D1*
X3902919D2*
X3917458D1*
X3944476D2*
X3992110D1*
X4038957D2*
X4056957D1*
X2712957Y2032715D2*
X2730957D1*
X2802957D2*
X2817957D1*
X2855222D2*
X2915810D1*
X2949957D2*
X2966561D1*
X2969634D2*
X3018009D1*
X3054957D2*
X3071561D1*
X3074634D2*
X3123009D1*
X3153714D2*
X3169422D1*
X3220921D2*
X3235211D1*
X3309957D2*
X3327957D1*
X3399957D2*
X3414957D1*
X3454787D2*
X3509692D1*
X3546957D2*
X3561957D1*
X3591957D2*
X3603957D1*
X3640904D2*
X3689280D1*
X3692342D2*
X3708957D1*
X3746222D2*
X3806810D1*
X3834714D2*
X3850422D1*
X3901921D2*
X3916211D1*
X3940721D2*
X3995997D1*
X4038968D2*
X4056945D1*
X2712957Y2029715D2*
X2730957D1*
X2802957D2*
X2817957D1*
X2851935D2*
X2918361D1*
X2949957D2*
X3021102D1*
X3054957D2*
X3126102D1*
X3154974D2*
X3170740D1*
X3219970D2*
X3234045D1*
X3309957D2*
X3327957D1*
X3399957D2*
X3414957D1*
X3451312D2*
X3512990D1*
X3546957D2*
X3561957D1*
X3591957D2*
X3603957D1*
X3637811D2*
X3708957D1*
X3742935D2*
X3809361D1*
X3835974D2*
X3851740D1*
X3900970D2*
X3915045D1*
X3937822D2*
X3998997D1*
X4039074D2*
X4056840D1*
X2712957Y2026715D2*
X2730957D1*
X2802957D2*
X2817957D1*
X2849482D2*
X2872558D1*
X2894652D2*
X2920249D1*
X2949957D2*
X2983546D1*
X3000355D2*
X3023489D1*
X3054957D2*
X3088546D1*
X3105355D2*
X3128489D1*
X3156319D2*
X3171842D1*
X3218946D2*
X3232977D1*
X3309957D2*
X3327957D1*
X3399957D2*
X3414957D1*
X3448218D2*
X3472546D1*
X3492367D2*
X3515549D1*
X3546957D2*
X3561957D1*
X3591957D2*
X3603957D1*
X3635424D2*
X3658558D1*
X3675716D2*
X3708957D1*
X3740482D2*
X3763558D1*
X3785652D2*
X3811249D1*
X3837319D2*
X3852842D1*
X3899946D2*
X3913977D1*
X3935778D2*
X3955672D1*
X3978355D2*
X4001104D1*
X4039456D2*
X4056457D1*
X2712957Y2023715D2*
X2730957D1*
X2802957D2*
X2817957D1*
X2847660D2*
X2867909D1*
X2900671D2*
X2921567D1*
X2949957D2*
X2978803D1*
X3005004D2*
X3025410D1*
X3054957D2*
X3083803D1*
X3110004D2*
X3130410D1*
X3157651D2*
X3172929D1*
X3217939D2*
X3231981D1*
X3309957D2*
X3327957D1*
X3399957D2*
X3414957D1*
X3445622D2*
X3467792D1*
X3497110D2*
X3517776D1*
X3546957D2*
X3561957D1*
X3591957D2*
X3603957D1*
X3633504D2*
X3653909D1*
X3680830D2*
X3708957D1*
X3738660D2*
X3758909D1*
X3791671D2*
X3812567D1*
X3838651D2*
X3853929D1*
X3898939D2*
X3912981D1*
X3934323D2*
X3951419D1*
X3982996D2*
X4002668D1*
X4040175D2*
X4055739D1*
X2712957Y2020715D2*
X2730957D1*
X2802957D2*
X2817957D1*
X2846229D2*
X2864289D1*
X2905184D2*
X2922323D1*
X2949957D2*
X2974904D1*
X3008615D2*
X3027082D1*
X3054957D2*
X3079904D1*
X3113615D2*
X3132082D1*
X3158833D2*
X3173961D1*
X3216967D2*
X3230849D1*
X3309957D2*
X3327957D1*
X3399957D2*
X3414957D1*
X3443703D2*
X3463799D1*
X3500997D2*
X3519807D1*
X3546957D2*
X3561957D1*
X3591957D2*
X3603957D1*
X3631831D2*
X3650298D1*
X3684881D2*
X3708957D1*
X3737229D2*
X3755289D1*
X3796184D2*
X3813323D1*
X3839833D2*
X3854961D1*
X3897967D2*
X3911849D1*
X3933094D2*
X3948149D1*
X3986540D2*
X4004238D1*
X4040944D2*
X4054969D1*
X2712957Y2017715D2*
X2817957D1*
X2846234D2*
X2861544D1*
X2907091D2*
X2922693D1*
X2949957D2*
X2971811D1*
X3011278D2*
X3028547D1*
X3054957D2*
X3076811D1*
X3116278D2*
X3133547D1*
X3159877D2*
X3174930D1*
X3215844D2*
X3229560D1*
X3309957D2*
X3414957D1*
X3442297D2*
X3460429D1*
X3503997D2*
X3521431D1*
X3546957D2*
X3561957D1*
X3591957D2*
X3603957D1*
X3630367D2*
X3647647D1*
X3688007D2*
X3708957D1*
X3737234D2*
X3752544D1*
X3798091D2*
X3813693D1*
X3840877D2*
X3855930D1*
X3896844D2*
X3910560D1*
X3932118D2*
X3946863D1*
X3989025D2*
X4005957D1*
X4041467D2*
X4054446D1*
X2712957Y2014715D2*
X2817957D1*
X2848296D2*
X2859219D1*
X2908581D2*
X2922854D1*
X2949957D2*
X2969436D1*
X3013326D2*
X3029694D1*
X3054957D2*
X3074436D1*
X3118326D2*
X3134694D1*
X3160942D2*
X3175962D1*
X3214558D2*
X3228250D1*
X3309957D2*
X3414957D1*
X3441085D2*
X3457718D1*
X3506095D2*
X3522704D1*
X3546957D2*
X3561957D1*
X3591957D2*
X3603957D1*
X3629231D2*
X3645693D1*
X3690474D2*
X3708957D1*
X3739296D2*
X3750219D1*
X3799581D2*
X3813854D1*
X3841942D2*
X3856962D1*
X3895558D2*
X3909250D1*
X3931613D2*
X3946725D1*
X3990957D2*
X3996957D1*
X4041745D2*
X4054168D1*
X2712957Y2011715D2*
X2817957D1*
X2850957D2*
X2856957D1*
X2909613D2*
X2922919D1*
X2949957D2*
X2967621D1*
X3015051D2*
X3030483D1*
X3054957D2*
X3072621D1*
X3120051D2*
X3135483D1*
X3161965D2*
X3176972D1*
X3213249D2*
X3227076D1*
X3309957D2*
X3414957D1*
X3440103D2*
X3455840D1*
X3507574D2*
X3523861D1*
X3546957D2*
X3561957D1*
X3591957D2*
X3603957D1*
X3628536D2*
X3644245D1*
X3692201D2*
X3708957D1*
X3741957D2*
X3747957D1*
X3800613D2*
X3813919D1*
X3842965D2*
X3857972D1*
X3894249D2*
X3908076D1*
X3931697D2*
X3948132D1*
X4041873D2*
X4054041D1*
X2712957Y2008715D2*
X2817957D1*
X2910283D2*
X2922943D1*
X2949957D2*
X2966319D1*
X3016535D2*
X3031207D1*
X3054957D2*
X3071319D1*
X3121535D2*
X3136207D1*
X3162943D2*
X3177934D1*
X3212075D2*
X3226035D1*
X3309957D2*
X3414957D1*
X3439483D2*
X3454690D1*
X3508814D2*
X3524822D1*
X3546957D2*
X3561957D1*
X3591957D2*
X3603957D1*
X3628088D2*
X3643096D1*
X3693276D2*
X3708957D1*
X3801283D2*
X3813943D1*
X3843943D2*
X3858934D1*
X3893075D2*
X3907035D1*
X3932382D2*
X3952648D1*
X4041925D2*
X4053988D1*
X2712957Y2005715D2*
X2817957D1*
X2906520D2*
X2922952D1*
X2949957D2*
X2965468D1*
X3017678D2*
X3032077D1*
X3054957D2*
X3070468D1*
X3122678D2*
X3137077D1*
X3164068D2*
X3178963D1*
X3211035D2*
X3224971D1*
X3309957D2*
X3414957D1*
X3439068D2*
X3453807D1*
X3509805D2*
X3525422D1*
X3546957D2*
X3561957D1*
X3591957D2*
X3603957D1*
X3627555D2*
X3642004D1*
X3694127D2*
X3708957D1*
X3797520D2*
X3813952D1*
X3845068D2*
X3859963D1*
X3892035D2*
X3905971D1*
X3933500D2*
X3959176D1*
X4041945D2*
X4053968D1*
X2712957Y2002715D2*
X2730957D1*
X2802957D2*
X2817957D1*
X2897351D2*
X2922955D1*
X2949957D2*
X2964719D1*
X3018364D2*
X3032908D1*
X3054957D2*
X3069719D1*
X3123364D2*
X3137908D1*
X3165355D2*
X3179973D1*
X3209971D2*
X3223948D1*
X3309957D2*
X3327957D1*
X3399957D2*
X3414957D1*
X3438547D2*
X3452873D1*
X3510417D2*
X3525730D1*
X3546957D2*
X3561957D1*
X3591957D2*
X3603957D1*
X3626775D2*
X3641073D1*
X3695048D2*
X3708957D1*
X3788351D2*
X3813955D1*
X3846355D2*
X3860973D1*
X3890971D2*
X3904948D1*
X3934943D2*
X3967239D1*
X4041953D2*
X4053961D1*
X2712957Y1999715D2*
X2730957D1*
X2802957D2*
X2817957D1*
X2885807D2*
X2922956D1*
X2949957D2*
X2963840D1*
X3018707D2*
X3033454D1*
X3054957D2*
X3068840D1*
X3123707D2*
X3138454D1*
X3166664D2*
X3180934D1*
X3208948D2*
X3222982D1*
X3309957D2*
X3327957D1*
X3399957D2*
X3414957D1*
X3437772D2*
X3452019D1*
X3510728D2*
X3525867D1*
X3546957D2*
X3561957D1*
X3591957D2*
X3603957D1*
X3625982D2*
X3640484D1*
X3695897D2*
X3708957D1*
X3776807D2*
X3813956D1*
X3847664D2*
X3861934D1*
X3889948D2*
X3903982D1*
X3936888D2*
X3975851D1*
X4041955D2*
X4053958D1*
X2712957Y1996715D2*
X2730957D1*
X2802957D2*
X2817957D1*
X2874152D2*
X2922957D1*
X2949957D2*
X2963007D1*
X3018859D2*
X3033741D1*
X3054957D2*
X3068007D1*
X3123859D2*
X3138741D1*
X3167838D2*
X3181963D1*
X3207982D2*
X3221951D1*
X3309957D2*
X3327957D1*
X3399957D2*
X3414957D1*
X3436981D2*
X3451464D1*
X3510867D2*
X3525923D1*
X3546957D2*
X3561957D1*
X3591957D2*
X3603957D1*
X3625451D2*
X3640181D1*
X3696451D2*
X3708957D1*
X3765152D2*
X3813957D1*
X3848838D2*
X3862963D1*
X3888982D2*
X3902951D1*
X3939707D2*
X3984186D1*
X4041956D2*
X4053957D1*
X2712957Y1993715D2*
X2730957D1*
X2802957D2*
X2817957D1*
X2864587D2*
X2922957D1*
X2949957D2*
X2962459D1*
X3018921D2*
X3033871D1*
X3054957D2*
X3067459D1*
X3123921D2*
X3138871D1*
X3168878D2*
X3182973D1*
X3206951D2*
X3220941D1*
X3309957D2*
X3327957D1*
X3399957D2*
X3414957D1*
X3436462D2*
X3451174D1*
X3510923D2*
X3525945D1*
X3546957D2*
X3561957D1*
X3591957D2*
X3603957D1*
X3625170D2*
X3640045D1*
X3696740D2*
X3708957D1*
X3755587D2*
X3813957D1*
X3849878D2*
X3863973D1*
X3887951D2*
X3901941D1*
X3943804D2*
X3991457D1*
X4041957D2*
X4053957D1*
X2712957Y1990715D2*
X2730957D1*
X2802957D2*
X2817957D1*
X2857569D2*
X2922957D1*
X2949957D2*
X2962184D1*
X3018944D2*
X3033913D1*
X3054957D2*
X3067184D1*
X3123944D2*
X3138913D1*
X3169942D2*
X3183934D1*
X3205941D2*
X3219968D1*
X3309957D2*
X3327957D1*
X3399957D2*
X3414957D1*
X3436287D2*
X3451054D1*
X3510945D2*
X3525953D1*
X3546957D2*
X3561957D1*
X3591957D2*
X3603957D1*
X3625053D2*
X3639990D1*
X3696859D2*
X3708957D1*
X3748569D2*
X3813957D1*
X3850942D2*
X3864934D1*
X3886941D2*
X3900968D1*
X3949526D2*
X3997153D1*
X4041968D2*
X4053957D1*
X2712957Y1987715D2*
X2730957D1*
X2802957D2*
X2817957D1*
X2852517D2*
X2901179D1*
X2910945D2*
X2922957D1*
X2949957D2*
X2962160D1*
X3018941D2*
X3033828D1*
X3054957D2*
X3067160D1*
X3123941D2*
X3138828D1*
X3170965D2*
X3184963D1*
X3204980D2*
X3218845D1*
X3309957D2*
X3327957D1*
X3399957D2*
X3414957D1*
X3436541D2*
X3451106D1*
X3510953D2*
X3525955D1*
X3546957D2*
X3561957D1*
X3591957D2*
X3603957D1*
X3625106D2*
X3639980D1*
X3696807D2*
X3708957D1*
X3743517D2*
X3792179D1*
X3801945D2*
X3813957D1*
X3851965D2*
X3865963D1*
X3885980D2*
X3899845D1*
X3956998D2*
X4001265D1*
X4042074D2*
X4053957D1*
X2712957Y1984715D2*
X2730957D1*
X2802957D2*
X2817957D1*
X2848701D2*
X2888427D1*
X2910840D2*
X2922957D1*
X2949957D2*
X2962488D1*
X3018838D2*
X3033453D1*
X3054957D2*
X3067488D1*
X3123838D2*
X3138453D1*
X3171931D2*
X3185973D1*
X3203950D2*
X3217558D1*
X3309957D2*
X3327957D1*
X3399957D2*
X3414957D1*
X3437206D2*
X3451468D1*
X3510944D2*
X3525956D1*
X3546957D2*
X3561957D1*
X3591957D2*
X3603957D1*
X3625468D2*
X3640078D1*
X3696446D2*
X3708957D1*
X3739701D2*
X3779427D1*
X3801840D2*
X3813957D1*
X3852931D2*
X3866973D1*
X3884950D2*
X3898558D1*
X3965674D2*
X4004132D1*
X4042458D2*
X4053957D1*
X2712957Y1981715D2*
X2730957D1*
X2802957D2*
X2817957D1*
X2845816D2*
X2877103D1*
X2910457D2*
X2922957D1*
X2949957D2*
X2963186D1*
X3018457D2*
X3032737D1*
X3054957D2*
X3068186D1*
X3123457D2*
X3137737D1*
X3172962D2*
X3186934D1*
X3202940D2*
X3216249D1*
X3309957D2*
X3327957D1*
X3399957D2*
X3414957D1*
X3437955D2*
X3452179D1*
X3510839D2*
X3525945D1*
X3546957D2*
X3561957D1*
X3591957D2*
X3603957D1*
X3626179D2*
X3640458D1*
X3695735D2*
X3708957D1*
X3736816D2*
X3768103D1*
X3801457D2*
X3813957D1*
X3853962D2*
X3867934D1*
X3883940D2*
X3897249D1*
X3974421D2*
X4006159D1*
X4043202D2*
X4053957D1*
X2712957Y1978715D2*
X2730957D1*
X2802957D2*
X2817957D1*
X2843564D2*
X2868593D1*
X2909727D2*
X2922957D1*
X2949957D2*
X2963960D1*
X3017727D2*
X3031957D1*
X3054957D2*
X3068960D1*
X3122727D2*
X3136957D1*
X3173973D2*
X3187963D1*
X3201980D2*
X3215075D1*
X3309957D2*
X3327957D1*
X3399957D2*
X3414957D1*
X3438483D2*
X3452957D1*
X3510457D2*
X3525839D1*
X3546957D2*
X3561957D1*
X3591957D2*
X3603957D1*
X3626957D2*
X3641187D1*
X3694956D2*
X3708957D1*
X3734564D2*
X3759593D1*
X3800727D2*
X3813957D1*
X3854973D2*
X3868963D1*
X3882980D2*
X3896075D1*
X3981954D2*
X4007534D1*
X4044095D2*
X4053957D1*
X2712957Y1975715D2*
X2730957D1*
X2802957D2*
X2817957D1*
X2842738D2*
X2862157D1*
X2908852D2*
X2922957D1*
X2949957D2*
X2964597D1*
X3016852D2*
X3031329D1*
X3054957D2*
X3069597D1*
X3121852D2*
X3136329D1*
X3174945D2*
X3188996D1*
X3200950D2*
X3214035D1*
X3309957D2*
X3327957D1*
X3399957D2*
X3414957D1*
X3438864D2*
X3453596D1*
X3509727D2*
X3525457D1*
X3546957D2*
X3561957D1*
X3591957D2*
X3603957D1*
X3627585D2*
X3642061D1*
X3694329D2*
X3708957D1*
X3733738D2*
X3753157D1*
X3799852D2*
X3813957D1*
X3855945D2*
X3869996D1*
X3881950D2*
X3895035D1*
X3987468D2*
X4008312D1*
X4044957D2*
X4053957D1*
X2712957Y1972715D2*
X2730957D1*
X2802957D2*
X2817957D1*
X2842290D2*
X2859171D1*
X2907935D2*
X2922957D1*
X2949957D2*
X2965362D1*
X3015935D2*
X3030669D1*
X3054957D2*
X3070362D1*
X3120935D2*
X3135669D1*
X3176069D2*
X3190188D1*
X3199932D2*
X3212971D1*
X3309957D2*
X3327957D1*
X3399957D2*
X3414957D1*
X3439372D2*
X3454374D1*
X3508841D2*
X3524727D1*
X3546957D2*
X3561957D1*
X3591957D2*
X3603957D1*
X3628245D2*
X3642978D1*
X3693657D2*
X3708957D1*
X3733290D2*
X3750171D1*
X3798935D2*
X3813957D1*
X3857069D2*
X3871188D1*
X3880932D2*
X3893971D1*
X3936957D2*
X3942957D1*
X3991484D2*
X4008677D1*
X2712957Y1969715D2*
X2730957D1*
X2802957D2*
X2817957D1*
X2842087D2*
X2858024D1*
X2906809D2*
X2922957D1*
X2949957D2*
X2966614D1*
X3014821D2*
X3029811D1*
X3054957D2*
X3071614D1*
X3119821D2*
X3134811D1*
X3177355D2*
X3191760D1*
X3198887D2*
X3211948D1*
X3309957D2*
X3327957D1*
X3399957D2*
X3414957D1*
X3440155D2*
X3455719D1*
X3507818D2*
X3523841D1*
X3546957D2*
X3561957D1*
X3591957D2*
X3603957D1*
X3629102D2*
X3644092D1*
X3692694D2*
X3708957D1*
X3733087D2*
X3749024D1*
X3797809D2*
X3813957D1*
X3858355D2*
X3872760D1*
X3879887D2*
X3892948D1*
X3927957D2*
X3944108D1*
X3992954D2*
X4008736D1*
X2712957Y1966715D2*
X2730957D1*
X2802957D2*
X2817957D1*
X2842005D2*
X2857539D1*
X2905296D2*
X2922968D1*
X2949957D2*
X2968377D1*
X3013413D2*
X3028872D1*
X3054957D2*
X3073377D1*
X3118413D2*
X3133872D1*
X3178664D2*
X3195143D1*
X3197546D2*
X3210982D1*
X3309957D2*
X3327957D1*
X3399957D2*
X3414957D1*
X3441062D2*
X3457771D1*
X3506310D2*
X3522830D1*
X3546957D2*
X3561957D1*
X3591957D2*
X3603957D1*
X3630041D2*
X3645500D1*
X3691361D2*
X3708957D1*
X3733005D2*
X3748539D1*
X3796296D2*
X3813968D1*
X3859664D2*
X3876143D1*
X3878546D2*
X3891982D1*
X3929456D2*
X3945515D1*
X3993203D2*
X4008407D1*
X2712957Y1963715D2*
X2730957D1*
X2802957D2*
X2817957D1*
X2841985D2*
X2857517D1*
X2903397D2*
X2923074D1*
X2949957D2*
X2970641D1*
X3011432D2*
X3027841D1*
X3054957D2*
X3075641D1*
X3116432D2*
X3132841D1*
X3179838D2*
X3209951D1*
X3309957D2*
X3327957D1*
X3399957D2*
X3414957D1*
X3442092D2*
X3460489D1*
X3504008D2*
X3521439D1*
X3546957D2*
X3561957D1*
X3591957D2*
X3603957D1*
X3631084D2*
X3647481D1*
X3689412D2*
X3708957D1*
X3732985D2*
X3748517D1*
X3794397D2*
X3814074D1*
X3860838D2*
X3890951D1*
X3930714D2*
X3947501D1*
X3992229D2*
X4007608D1*
X2712957Y1960715D2*
X2730957D1*
X2802957D2*
X2817957D1*
X2842091D2*
X2859293D1*
X2898737D2*
X2923456D1*
X2949957D2*
X2973407D1*
X3008794D2*
X3026443D1*
X3054957D2*
X3078407D1*
X3113794D2*
X3131443D1*
X3180878D2*
X3208941D1*
X3309957D2*
X3327957D1*
X3399957D2*
X3414957D1*
X3443590D2*
X3464469D1*
X3501052D2*
X3519707D1*
X3546957D2*
X3561957D1*
X3591957D2*
X3603957D1*
X3632588D2*
X3650119D1*
X3686790D2*
X3708957D1*
X3733091D2*
X3750293D1*
X3789737D2*
X3814456D1*
X3861878D2*
X3889941D1*
X3931986D2*
X3950169D1*
X3989552D2*
X4006454D1*
X2712957Y1957715D2*
X2730957D1*
X2802957D2*
X2817957D1*
X2842587D2*
X2866501D1*
X2890774D2*
X2924175D1*
X2949957D2*
X2979857D1*
X3001537D2*
X3024696D1*
X3054957D2*
X3084857D1*
X3106537D2*
X3129696D1*
X3181942D2*
X3207968D1*
X3309957D2*
X3327957D1*
X3399957D2*
X3414957D1*
X3445706D2*
X3471377D1*
X3493661D2*
X3517850D1*
X3546957D2*
X3561957D1*
X3591957D2*
X3603957D1*
X3634705D2*
X3657377D1*
X3679535D2*
X3708957D1*
X3733587D2*
X3757501D1*
X3781774D2*
X3815175D1*
X3862942D2*
X3888968D1*
X3933448D2*
X3957948D1*
X3981879D2*
X4005098D1*
X4038957D2*
X4056957D1*
X2712957Y1954715D2*
X2730957D1*
X2802957D2*
X2817957D1*
X2843804D2*
X2878273D1*
X2878247D2*
X2924956D1*
X2949957D2*
X2989379D1*
X2990471D2*
X3022745D1*
X3054957D2*
X3094379D1*
X3095471D2*
X3127745D1*
X3182965D2*
X3206845D1*
X3309957D2*
X3327957D1*
X3399957D2*
X3414957D1*
X3448281D2*
X3482417D1*
X3482519D2*
X3515705D1*
X3546957D2*
X3561957D1*
X3591957D2*
X3603957D1*
X3637269D2*
X3668443D1*
X3668470D2*
X3708957D1*
X3734804D2*
X3769273D1*
X3769247D2*
X3815956D1*
X3863965D2*
X3887845D1*
X3935279D2*
X3970053D1*
X3969828D2*
X4003540D1*
X4038957D2*
X4056957D1*
X2712957Y1951715D2*
X2730957D1*
X2802957D2*
X2817957D1*
X2845802D2*
X2925593D1*
X2949957D2*
X3020300D1*
X3054957D2*
X3125300D1*
X3183931D2*
X3205558D1*
X3309957D2*
X3327957D1*
X3399957D2*
X3414957D1*
X3451207D2*
X3512899D1*
X3546957D2*
X3561957D1*
X3591957D2*
X3603957D1*
X3640101D2*
X3690945D1*
X3696957D2*
X3708957D1*
X3736802D2*
X3816593D1*
X3864931D2*
X3886558D1*
X3937692D2*
X4001543D1*
X4038957D2*
X4056957D1*
X2712957Y1948715D2*
X2730957D1*
X2802957D2*
X2817957D1*
X2848427D2*
X2901245D1*
X2911508D2*
X2926336D1*
X2949957D2*
X2964957D1*
X2971080D2*
X3016952D1*
X3054957D2*
X3069957D1*
X3076080D2*
X3121952D1*
X3184951D2*
X3204249D1*
X3309957D2*
X3327957D1*
X3399957D2*
X3414957D1*
X3454629D2*
X3509259D1*
X3546957D2*
X3561957D1*
X3591957D2*
X3603957D1*
X3643253D2*
X3687831D1*
X3696957D2*
X3708957D1*
X3739427D2*
X3792245D1*
X3802508D2*
X3817336D1*
X3865951D2*
X3885249D1*
X3940839D2*
X3998612D1*
X4038957D2*
X4056957D1*
X2712957Y1945715D2*
X2730957D1*
X2802957D2*
X2817957D1*
X2851679D2*
X2896544D1*
X2912561D2*
X2927494D1*
X2949957D2*
X2964957D1*
X2974546D2*
X3012556D1*
X3054957D2*
X3069957D1*
X3079546D2*
X3117556D1*
X3185855D2*
X3203075D1*
X3309957D2*
X3327957D1*
X3399957D2*
X3414957D1*
X3458807D2*
X3504693D1*
X3546957D2*
X3561957D1*
X3591957D2*
X3603957D1*
X3647152D2*
X3684367D1*
X3696957D2*
X3708957D1*
X3742679D2*
X3787544D1*
X3803561D2*
X3818494D1*
X3866855D2*
X3884075D1*
X3944891D2*
X3994284D1*
X4038957D2*
X4056957D1*
X2712957Y1942715D2*
X2730957D1*
X2802957D2*
X2817957D1*
X2855618D2*
X2890591D1*
X2913957D2*
X2928957D1*
X2949957D2*
X2964957D1*
X2978572D2*
X3007079D1*
X3054957D2*
X3069957D1*
X3083572D2*
X3112079D1*
X3186422D2*
X3202035D1*
X3309957D2*
X3327957D1*
X3399957D2*
X3414957D1*
X3463715D2*
X3499131D1*
X3546957D2*
X3561957D1*
X3591957D2*
X3603957D1*
X3652192D2*
X3680342D1*
X3696957D2*
X3708957D1*
X3746618D2*
X3781591D1*
X3804957D2*
X3819957D1*
X3867422D2*
X3883035D1*
X3949745D2*
X3988497D1*
X4038957D2*
X4056957D1*
X2859957Y1939715D2*
X2883957D1*
X2949957D2*
X2964957D1*
X2982957D2*
X3000957D1*
X3054957D2*
X3069957D1*
X3087957D2*
X3105957D1*
X3186616D2*
X3200971D1*
X3468957D2*
X3492957D1*
X3657957D2*
X3675957D1*
X3750957D2*
X3774957D1*
X3867616D2*
X3881971D1*
X3954957D2*
X3981957D1*
X2949957Y1936715D2*
X2964957D1*
X3054957D2*
X3069957D1*
X3186357D2*
X3199948D1*
X3867357D2*
X3880948D1*
X2949957Y1933715D2*
X2964957D1*
X3054957D2*
X3069957D1*
X3185589D2*
X3198971D1*
X3866589D2*
X3879971D1*
X2949957Y1930715D2*
X2964957D1*
X3054957D2*
X3069957D1*
X3184435D2*
X3197845D1*
X3865435D2*
X3878845D1*
X2949957Y1927715D2*
X2964957D1*
X3054957D2*
X3069957D1*
X3182931D2*
X3196547D1*
X3863931D2*
X3877547D1*
X2949957Y1924715D2*
X2964957D1*
X3054957D2*
X3069957D1*
X3181082D2*
X3195144D1*
X3862082D2*
X3876144D1*
X2949957Y1921715D2*
X2964957D1*
X3054957D2*
X3069957D1*
X3176718D2*
X3193681D1*
X3857718D2*
X3874681D1*
X2949957Y1918715D2*
X2964957D1*
X3054957D2*
X3069957D1*
X3171165D2*
X3192187D1*
X3852165D2*
X3873187D1*
X2949957Y1915715D2*
X2964957D1*
X3054957D2*
X3069957D1*
X3166115D2*
X3190574D1*
X3847115D2*
X3871574D1*
X2949957Y1912715D2*
X2964957D1*
X3054957D2*
X3069957D1*
X3162312D2*
X3188570D1*
X3843312D2*
X3869570D1*
X2949957Y1909715D2*
X2964957D1*
X3054957D2*
X3069957D1*
X3161224D2*
X3185783D1*
X3842224D2*
X3866783D1*
X2949957Y1906715D2*
X2964957D1*
X3054957D2*
X3069957D1*
X3161888D2*
X3182114D1*
X3842888D2*
X3863114D1*
X2949957Y1903715D2*
X2964957D1*
X3054957D2*
X3069957D1*
X3162957D2*
X3177957D1*
X3843957D2*
X3858957D1*
X2712957Y2074715D2*
Y2071715D1*
Y2068715D1*
Y2065715D1*
Y2062715D1*
Y2059715D1*
Y2056715D1*
Y2053715D1*
Y2050715D1*
Y2047715D1*
Y2044715D1*
Y2041715D1*
Y2038715D1*
Y2035715D1*
Y2032715D1*
Y2029715D1*
Y2026715D1*
Y2023715D1*
Y2020715D1*
Y2017715D1*
Y2014715D1*
Y2011715D1*
Y2008715D1*
Y2005715D1*
Y2002715D1*
Y1999715D1*
Y1996715D1*
Y1993715D1*
Y1990715D1*
Y1987715D1*
Y1984715D1*
Y1981715D1*
Y1978715D1*
Y1975715D1*
Y1972715D1*
Y1969715D1*
Y1966715D1*
Y1963715D1*
Y1960715D1*
Y1957715D1*
Y1954715D1*
Y1951715D1*
Y1948715D1*
Y1945715D1*
Y1942715D1*
X2730957Y2074715D2*
Y2071715D1*
Y2068715D1*
Y2065715D1*
Y2062715D1*
Y2059715D1*
Y2056715D1*
Y2053715D1*
Y2050715D1*
Y2047715D1*
Y2044715D1*
Y2041715D1*
Y2038715D1*
Y2035715D1*
Y2032715D1*
Y2029715D1*
Y2026715D1*
Y2023715D1*
Y2020715D1*
Y2017715D1*
X2802957Y2074715D2*
Y2071715D1*
Y2068715D1*
Y2065715D1*
Y2062715D1*
Y2059715D1*
Y2056715D1*
Y2053715D1*
Y2050715D1*
Y2047715D1*
Y2044715D1*
Y2041715D1*
Y2038715D1*
Y2035715D1*
Y2032715D1*
Y2029715D1*
Y2026715D1*
Y2023715D1*
Y2020715D1*
Y2017715D1*
X2817957Y2074715D2*
Y2071715D1*
Y2068715D1*
Y2065715D1*
Y2062715D1*
Y2059715D1*
Y2056715D1*
Y2053715D1*
Y2050715D1*
Y2047715D1*
Y2044715D1*
Y2041715D1*
Y2038715D1*
Y2035715D1*
Y2032715D1*
Y2029715D1*
Y2026715D1*
Y2023715D1*
Y2020715D1*
Y2017715D1*
Y2014715D1*
Y2011715D1*
Y2008715D1*
Y2005715D1*
Y2002715D1*
Y1999715D1*
Y1996715D1*
Y1993715D1*
Y1990715D1*
Y1987715D1*
Y1984715D1*
Y1981715D1*
Y1978715D1*
Y1975715D1*
Y1972715D1*
Y1969715D1*
Y1966715D1*
Y1963715D1*
Y1960715D1*
Y1957715D1*
Y1954715D1*
Y1951715D1*
Y1948715D1*
Y1945715D1*
Y1942715D1*
X3309957Y2074715D2*
Y2071715D1*
Y2068715D1*
Y2065715D1*
Y2062715D1*
Y2059715D1*
Y2056715D1*
Y2053715D1*
Y2050715D1*
Y2047715D1*
Y2044715D1*
Y2041715D1*
Y2038715D1*
Y2035715D1*
Y2032715D1*
Y2029715D1*
Y2026715D1*
Y2023715D1*
Y2020715D1*
Y2017715D1*
Y2014715D1*
Y2011715D1*
Y2008715D1*
Y2005715D1*
Y2002715D1*
Y1999715D1*
Y1996715D1*
Y1993715D1*
Y1990715D1*
Y1987715D1*
Y1984715D1*
Y1981715D1*
Y1978715D1*
Y1975715D1*
Y1972715D1*
Y1969715D1*
Y1966715D1*
Y1963715D1*
Y1960715D1*
Y1957715D1*
Y1954715D1*
Y1951715D1*
Y1948715D1*
Y1945715D1*
Y1942715D1*
X3327957Y2074715D2*
Y2071715D1*
Y2068715D1*
Y2065715D1*
Y2062715D1*
Y2059715D1*
Y2056715D1*
Y2053715D1*
Y2050715D1*
Y2047715D1*
Y2044715D1*
Y2041715D1*
Y2038715D1*
Y2035715D1*
Y2032715D1*
Y2029715D1*
Y2026715D1*
Y2023715D1*
Y2020715D1*
Y2017715D1*
X3399957Y2074715D2*
Y2071715D1*
Y2068715D1*
Y2065715D1*
Y2062715D1*
Y2059715D1*
Y2056715D1*
Y2053715D1*
Y2050715D1*
Y2047715D1*
Y2044715D1*
Y2041715D1*
Y2038715D1*
Y2035715D1*
Y2032715D1*
Y2029715D1*
Y2026715D1*
Y2023715D1*
Y2020715D1*
Y2017715D1*
X3414957Y2074715D2*
Y2071715D1*
Y2068715D1*
Y2065715D1*
Y2062715D1*
Y2059715D1*
Y2056715D1*
Y2053715D1*
Y2050715D1*
Y2047715D1*
Y2044715D1*
Y2041715D1*
Y2038715D1*
Y2035715D1*
Y2032715D1*
Y2029715D1*
Y2026715D1*
Y2023715D1*
Y2020715D1*
Y2017715D1*
Y2014715D1*
Y2011715D1*
Y2008715D1*
Y2005715D1*
Y2002715D1*
Y1999715D1*
Y1996715D1*
Y1993715D1*
Y1990715D1*
Y1987715D1*
Y1984715D1*
Y1981715D1*
Y1978715D1*
Y1975715D1*
Y1972715D1*
Y1969715D1*
Y1966715D1*
Y1963715D1*
Y1960715D1*
Y1957715D1*
Y1954715D1*
Y1951715D1*
Y1948715D1*
Y1945715D1*
Y1942715D1*
X3546957Y2074715D2*
Y2071715D1*
Y2068715D1*
Y2065715D1*
Y2062715D1*
Y2059715D1*
Y2056715D1*
Y2053715D1*
Y2050715D1*
Y2047715D1*
Y2044715D1*
Y2041715D1*
Y2038715D1*
Y2035715D1*
Y2032715D1*
Y2029715D1*
Y2026715D1*
Y2023715D1*
Y2020715D1*
Y2017715D1*
Y2014715D1*
Y2011715D1*
Y2008715D1*
Y2005715D1*
Y2002715D1*
Y1999715D1*
Y1996715D1*
Y1993715D1*
Y1990715D1*
Y1987715D1*
Y1984715D1*
Y1981715D1*
Y1978715D1*
Y1975715D1*
Y1972715D1*
Y1969715D1*
Y1966715D1*
Y1963715D1*
Y1960715D1*
Y1957715D1*
Y1954715D1*
Y1951715D1*
Y1948715D1*
Y1945715D1*
Y1942715D1*
X3561957Y2074715D2*
Y2071715D1*
Y2068715D1*
Y2065715D1*
Y2062715D1*
Y2059715D1*
Y2056715D1*
Y2053715D1*
Y2050715D1*
Y2047715D1*
Y2044715D1*
Y2041715D1*
Y2038715D1*
Y2035715D1*
Y2032715D1*
Y2029715D1*
Y2026715D1*
Y2023715D1*
Y2020715D1*
Y2017715D1*
Y2014715D1*
Y2011715D1*
Y2008715D1*
Y2005715D1*
Y2002715D1*
Y1999715D1*
Y1996715D1*
Y1993715D1*
Y1990715D1*
Y1987715D1*
Y1984715D1*
Y1981715D1*
Y1978715D1*
Y1975715D1*
Y1972715D1*
Y1969715D1*
Y1966715D1*
Y1963715D1*
Y1960715D1*
Y1957715D1*
Y1954715D1*
Y1951715D1*
Y1948715D1*
Y1945715D1*
Y1942715D1*
X3591957Y2074715D2*
Y2071715D1*
Y2068715D1*
Y2065715D1*
Y2062715D1*
Y2059715D1*
X3603957Y2074715D2*
Y2071715D1*
Y2068715D1*
Y2065715D1*
Y2062715D1*
Y2059715D1*
X3693957Y2074715D2*
Y2071715D1*
Y2068715D1*
Y2065715D1*
Y2062715D1*
Y2059715D1*
Y2056715D1*
Y2053715D1*
Y2050715D1*
Y2047715D1*
Y2044715D1*
X3693945Y2041715D1*
X3693831Y2038715D1*
X3693367Y2035715D1*
X3692342Y2032715D1*
X3690957Y2029715D1*
X3708957Y2074715D2*
Y2071715D1*
Y2068715D1*
Y2065715D1*
Y2062715D1*
Y2059715D1*
Y2056715D1*
Y2053715D1*
Y2050715D1*
Y2047715D1*
Y2044715D1*
Y2041715D1*
Y2038715D1*
Y2035715D1*
Y2032715D1*
Y2029715D1*
Y2026715D1*
Y2023715D1*
Y2020715D1*
Y2017715D1*
Y2014715D1*
Y2011715D1*
Y2008715D1*
Y2005715D1*
Y2002715D1*
Y1999715D1*
Y1996715D1*
Y1993715D1*
Y1990715D1*
Y1987715D1*
Y1984715D1*
Y1981715D1*
Y1978715D1*
Y1975715D1*
Y1972715D1*
Y1969715D1*
Y1966715D1*
Y1963715D1*
Y1960715D1*
Y1957715D1*
Y1954715D1*
Y1951715D1*
Y1948715D1*
Y1945715D1*
Y1942715D1*
X4038957Y2074715D2*
Y2071715D1*
Y2068715D1*
Y2065715D1*
Y2062715D1*
Y2059715D1*
Y2056715D1*
Y2053715D1*
Y2050715D1*
Y2047715D1*
Y2044715D1*
Y2041715D1*
Y2038715D1*
Y2035715D1*
X4038968Y2032715D1*
X4039074Y2029715D1*
X4039456Y2026715D1*
X4040175Y2023715D1*
X4040944Y2020715D1*
X4041467Y2017715D1*
X4041745Y2014715D1*
X4041873Y2011715D1*
X4041925Y2008715D1*
X4041945Y2005715D1*
X4041953Y2002715D1*
X4041955Y1999715D1*
X4041956Y1996715D1*
X4041957Y1993715D1*
X4041968Y1990715D1*
X4042074Y1987715D1*
X4042458Y1984715D1*
X4043202Y1981715D1*
X4044095Y1978715D1*
X4044957Y1975715D1*
X4056957Y2074715D2*
Y2071715D1*
Y2068715D1*
Y2065715D1*
Y2062715D1*
Y2059715D1*
Y2056715D1*
Y2053715D1*
Y2050715D1*
Y2047715D1*
Y2044715D1*
Y2041715D1*
Y2038715D1*
Y2035715D1*
X4056945Y2032715D1*
X4056840Y2029715D1*
X4056457Y2026715D1*
X4055739Y2023715D1*
X4054969Y2020715D1*
X4054446Y2017715D1*
X4054168Y2014715D1*
X4054041Y2011715D1*
X4053988Y2008715D1*
X4053968Y2005715D1*
X4053961Y2002715D1*
X4053958Y1999715D1*
X4053957Y1996715D1*
Y1993715D1*
Y1990715D1*
Y1987715D1*
Y1984715D1*
Y1981715D1*
Y1978715D1*
Y1975715D1*
X2871957Y2041715D2*
X2865161Y2038715D1*
X2859557Y2035715D1*
X2855222Y2032715D1*
X2851935Y2029715D1*
X2849482Y2026715D1*
X2847660Y2023715D1*
X2846229Y2020715D1*
X2846234Y2017715D1*
X2848296Y2014715D1*
X2850957Y2011715D1*
X2901957Y2041715D2*
X2907715Y2038715D1*
X2912332Y2035715D1*
X2915810Y2032715D1*
X2918361Y2029715D1*
X2920249Y2026715D1*
X2921567Y2023715D1*
X2922323Y2020715D1*
X2922693Y2017715D1*
X2922854Y2014715D1*
X2922919Y2011715D1*
X2922943Y2008715D1*
X2922952Y2005715D1*
X2922955Y2002715D1*
X2922956Y1999715D1*
X2922957Y1996715D1*
Y1993715D1*
Y1990715D1*
Y1987715D1*
Y1984715D1*
Y1981715D1*
Y1978715D1*
Y1975715D1*
Y1972715D1*
Y1969715D1*
X2922968Y1966715D1*
X2923074Y1963715D1*
X2923456Y1960715D1*
X2924175Y1957715D1*
X2924956Y1954715D1*
X2925593Y1951715D1*
X2926336Y1948715D1*
X2927494Y1945715D1*
X2928957Y1942715D1*
X2982957Y2041715D2*
X2978449Y2038715D1*
X2974118Y2035715D1*
X2969634Y2032715D1*
X2964957Y2029715D1*
X3003957Y2041715D2*
X3009367Y2038715D1*
X3014110Y2035715D1*
X3018009Y2032715D1*
X3021102Y2029715D1*
X3023489Y2026715D1*
X3025410Y2023715D1*
X3027082Y2020715D1*
X3028547Y2017715D1*
X3029694Y2014715D1*
X3030483Y2011715D1*
X3031207Y2008715D1*
X3032077Y2005715D1*
X3032908Y2002715D1*
X3033454Y1999715D1*
X3033741Y1996715D1*
X3033871Y1993715D1*
X3033913Y1990715D1*
X3033828Y1987715D1*
X3033453Y1984715D1*
X3032737Y1981715D1*
X3031957Y1978715D1*
X3031329Y1975715D1*
X3030669Y1972715D1*
X3029811Y1969715D1*
X3028872Y1966715D1*
X3027841Y1963715D1*
X3026443Y1960715D1*
X3024696Y1957715D1*
X3022745Y1954715D1*
X3020300Y1951715D1*
X3016952Y1948715D1*
X3012556Y1945715D1*
X3007079Y1942715D1*
X3000957Y1939715D1*
X3087957Y2041715D2*
X3083449Y2038715D1*
X3079118Y2035715D1*
X3074634Y2032715D1*
X3069957Y2029715D1*
X3108957Y2041715D2*
X3114367Y2038715D1*
X3119110Y2035715D1*
X3123009Y2032715D1*
X3126102Y2029715D1*
X3128489Y2026715D1*
X3130410Y2023715D1*
X3132082Y2020715D1*
X3133547Y2017715D1*
X3134694Y2014715D1*
X3135483Y2011715D1*
X3136207Y2008715D1*
X3137077Y2005715D1*
X3137908Y2002715D1*
X3138454Y1999715D1*
X3138741Y1996715D1*
X3138871Y1993715D1*
X3138913Y1990715D1*
X3138828Y1987715D1*
X3138453Y1984715D1*
X3137737Y1981715D1*
X3136957Y1978715D1*
X3136329Y1975715D1*
X3135669Y1972715D1*
X3134811Y1969715D1*
X3133872Y1966715D1*
X3132841Y1963715D1*
X3131443Y1960715D1*
X3129696Y1957715D1*
X3127745Y1954715D1*
X3125300Y1951715D1*
X3121952Y1948715D1*
X3117556Y1945715D1*
X3112079Y1942715D1*
X3105957Y1939715D1*
X3468957Y2041715D2*
X3463546Y2038715D1*
X3458792Y2035715D1*
X3454787Y2032715D1*
X3451312Y2029715D1*
X3448218Y2026715D1*
X3445622Y2023715D1*
X3443703Y2020715D1*
X3442297Y2017715D1*
X3441085Y2014715D1*
X3440103Y2011715D1*
X3439483Y2008715D1*
X3439068Y2005715D1*
X3438547Y2002715D1*
X3437772Y1999715D1*
X3436981Y1996715D1*
X3436462Y1993715D1*
X3436287Y1990715D1*
X3436541Y1987715D1*
X3437206Y1984715D1*
X3437955Y1981715D1*
X3438483Y1978715D1*
X3438864Y1975715D1*
X3439372Y1972715D1*
X3440155Y1969715D1*
X3441062Y1966715D1*
X3442092Y1963715D1*
X3443590Y1960715D1*
X3445706Y1957715D1*
X3448281Y1954715D1*
X3451207Y1951715D1*
X3454629Y1948715D1*
X3458807Y1945715D1*
X3463715Y1942715D1*
X3468957Y1939715D1*
X3492957Y2041715D2*
X3499752Y2038715D1*
X3505356Y2035715D1*
X3509692Y2032715D1*
X3512990Y2029715D1*
X3515549Y2026715D1*
X3517776Y2023715D1*
X3519807Y2020715D1*
X3521431Y2017715D1*
X3522704Y2014715D1*
X3523861Y2011715D1*
X3524822Y2008715D1*
X3525422Y2005715D1*
X3525730Y2002715D1*
X3525867Y1999715D1*
X3525923Y1996715D1*
X3525945Y1993715D1*
X3525953Y1990715D1*
X3525955Y1987715D1*
X3525956Y1984715D1*
X3525945Y1981715D1*
X3525839Y1978715D1*
X3525457Y1975715D1*
X3524727Y1972715D1*
X3523841Y1969715D1*
X3522830Y1966715D1*
X3521439Y1963715D1*
X3519707Y1960715D1*
X3517850Y1957715D1*
X3515705Y1954715D1*
X3512899Y1951715D1*
X3509259Y1948715D1*
X3504693Y1945715D1*
X3499131Y1942715D1*
X3492957Y1939715D1*
X3654957Y2041715D2*
X3649546Y2038715D1*
X3644803Y2035715D1*
X3640904Y2032715D1*
X3637811Y2029715D1*
X3635424Y2026715D1*
X3633504Y2023715D1*
X3631831Y2020715D1*
X3630367Y2017715D1*
X3629231Y2014715D1*
X3628536Y2011715D1*
X3628088Y2008715D1*
X3627555Y2005715D1*
X3626775Y2002715D1*
X3625982Y1999715D1*
X3625451Y1996715D1*
X3625170Y1993715D1*
X3625053Y1990715D1*
X3625106Y1987715D1*
X3625468Y1984715D1*
X3626179Y1981715D1*
X3626957Y1978715D1*
X3627585Y1975715D1*
X3628245Y1972715D1*
X3629102Y1969715D1*
X3630041Y1966715D1*
X3631084Y1963715D1*
X3632588Y1960715D1*
X3634705Y1957715D1*
X3637269Y1954715D1*
X3640101Y1951715D1*
X3643253Y1948715D1*
X3647152Y1945715D1*
X3652192Y1942715D1*
X3657957Y1939715D1*
X3675957Y2041715D2*
X3680465Y2038715D1*
X3684795Y2035715D1*
X3689280Y2032715D1*
X3693957Y2029715D1*
X3762957Y2041715D2*
X3756161Y2038715D1*
X3750557Y2035715D1*
X3746222Y2032715D1*
X3742935Y2029715D1*
X3740482Y2026715D1*
X3738660Y2023715D1*
X3737229Y2020715D1*
X3737234Y2017715D1*
X3739296Y2014715D1*
X3741957Y2011715D1*
X3792957Y2041715D2*
X3798715Y2038715D1*
X3803332Y2035715D1*
X3806810Y2032715D1*
X3809361Y2029715D1*
X3811249Y2026715D1*
X3812567Y2023715D1*
X3813323Y2020715D1*
X3813693Y2017715D1*
X3813854Y2014715D1*
X3813919Y2011715D1*
X3813943Y2008715D1*
X3813952Y2005715D1*
X3813955Y2002715D1*
X3813956Y1999715D1*
X3813957Y1996715D1*
Y1993715D1*
Y1990715D1*
Y1987715D1*
Y1984715D1*
Y1981715D1*
Y1978715D1*
Y1975715D1*
Y1972715D1*
Y1969715D1*
X3813968Y1966715D1*
X3814074Y1963715D1*
X3814456Y1960715D1*
X3815175Y1957715D1*
X3815956Y1954715D1*
X3816593Y1951715D1*
X3817336Y1948715D1*
X3818494Y1945715D1*
X3819957Y1942715D1*
X3954957Y2041715D2*
X3949187Y2038715D1*
X3944476Y2035715D1*
X3940721Y2032715D1*
X3937822Y2029715D1*
X3935778Y2026715D1*
X3934323Y2023715D1*
X3933094Y2020715D1*
X3932118Y2017715D1*
X3931613Y2014715D1*
X3931697Y2011715D1*
X3932382Y2008715D1*
X3933500Y2005715D1*
X3934943Y2002715D1*
X3936888Y1999715D1*
X3939707Y1996715D1*
X3943804Y1993715D1*
X3949526Y1990715D1*
X3956998Y1987715D1*
X3965674Y1984715D1*
X3974421Y1981715D1*
X3981954Y1978715D1*
X3987468Y1975715D1*
X3991484Y1972715D1*
X3992954Y1969715D1*
X3993203Y1966715D1*
X3992229Y1963715D1*
X3989552Y1960715D1*
X3981879Y1957715D1*
X3969828Y1954715D1*
X3954957Y1951715D1*
X3981957Y2041715D2*
X3987367Y2038715D1*
X3992110Y2035715D1*
X3995997Y2032715D1*
X3998997Y2029715D1*
X4001104Y2026715D1*
X4002668Y2023715D1*
X4004238Y2020715D1*
X4005957Y2017715D1*
X3996957Y2014715D1*
X2949957Y2038715D2*
Y2035715D1*
Y2032715D1*
Y2029715D1*
Y2026715D1*
Y2023715D1*
Y2020715D1*
Y2017715D1*
Y2014715D1*
Y2011715D1*
Y2008715D1*
Y2005715D1*
Y2002715D1*
Y1999715D1*
Y1996715D1*
Y1993715D1*
Y1990715D1*
Y1987715D1*
Y1984715D1*
Y1981715D1*
Y1978715D1*
Y1975715D1*
Y1972715D1*
Y1969715D1*
Y1966715D1*
Y1963715D1*
Y1960715D1*
Y1957715D1*
Y1954715D1*
Y1951715D1*
Y1948715D1*
Y1945715D1*
Y1942715D1*
Y1939715D1*
Y1936715D1*
Y1933715D1*
Y1930715D1*
Y1927715D1*
Y1924715D1*
Y1921715D1*
Y1918715D1*
Y1915715D1*
Y1912715D1*
Y1909715D1*
Y1906715D1*
Y1903715D1*
X2964957Y2038715D2*
X2965508Y2035715D1*
X2966561Y2032715D1*
X2967957Y2029715D1*
X3054957Y2038715D2*
Y2035715D1*
Y2032715D1*
Y2029715D1*
Y2026715D1*
Y2023715D1*
Y2020715D1*
Y2017715D1*
Y2014715D1*
Y2011715D1*
Y2008715D1*
Y2005715D1*
Y2002715D1*
Y1999715D1*
Y1996715D1*
Y1993715D1*
Y1990715D1*
Y1987715D1*
Y1984715D1*
Y1981715D1*
Y1978715D1*
Y1975715D1*
Y1972715D1*
Y1969715D1*
Y1966715D1*
Y1963715D1*
Y1960715D1*
Y1957715D1*
Y1954715D1*
Y1951715D1*
Y1948715D1*
Y1945715D1*
Y1942715D1*
Y1939715D1*
Y1936715D1*
Y1933715D1*
Y1930715D1*
Y1927715D1*
Y1924715D1*
Y1921715D1*
Y1918715D1*
Y1915715D1*
Y1912715D1*
Y1909715D1*
Y1906715D1*
Y1903715D1*
X3069957Y2038715D2*
X3070508Y2035715D1*
X3071561Y2032715D1*
X3072957Y2029715D1*
X3150957Y2038715D2*
X3152456Y2035715D1*
X3153714Y2032715D1*
X3154974Y2029715D1*
X3156319Y2026715D1*
X3157651Y2023715D1*
X3158833Y2020715D1*
X3159877Y2017715D1*
X3160942Y2014715D1*
X3161965Y2011715D1*
X3162943Y2008715D1*
X3164068Y2005715D1*
X3165355Y2002715D1*
X3166664Y1999715D1*
X3167838Y1996715D1*
X3168878Y1993715D1*
X3169942Y1990715D1*
X3170965Y1987715D1*
X3171931Y1984715D1*
X3172962Y1981715D1*
X3173973Y1978715D1*
X3174945Y1975715D1*
X3176069Y1972715D1*
X3177355Y1969715D1*
X3178664Y1966715D1*
X3179838Y1963715D1*
X3180878Y1960715D1*
X3181942Y1957715D1*
X3182965Y1954715D1*
X3183931Y1951715D1*
X3184951Y1948715D1*
X3185855Y1945715D1*
X3186422Y1942715D1*
X3186616Y1939715D1*
X3186357Y1936715D1*
X3185589Y1933715D1*
X3184435Y1930715D1*
X3182931Y1927715D1*
X3181082Y1924715D1*
X3176718Y1921715D1*
X3171165Y1918715D1*
X3166115Y1915715D1*
X3162312Y1912715D1*
X3161224Y1909715D1*
X3161888Y1906715D1*
X3162957Y1903715D1*
X3165957Y2038715D2*
X3167805Y2035715D1*
X3169422Y2032715D1*
X3170740Y2029715D1*
X3171842Y2026715D1*
X3172929Y2023715D1*
X3173961Y2020715D1*
X3174930Y2017715D1*
X3175962Y2014715D1*
X3176972Y2011715D1*
X3177934Y2008715D1*
X3178963Y2005715D1*
X3179973Y2002715D1*
X3180934Y1999715D1*
X3181963Y1996715D1*
X3182973Y1993715D1*
X3183934Y1990715D1*
X3184963Y1987715D1*
X3185973Y1984715D1*
X3186934Y1981715D1*
X3187963Y1978715D1*
X3188996Y1975715D1*
X3190188Y1972715D1*
X3191760Y1969715D1*
X3195143Y1966715D1*
X3198957Y1963715D1*
X3222957Y2038715D2*
X3221919Y2035715D1*
X3220921Y2032715D1*
X3219970Y2029715D1*
X3218946Y2026715D1*
X3217939Y2023715D1*
X3216967Y2020715D1*
X3215844Y2017715D1*
X3214558Y2014715D1*
X3213249Y2011715D1*
X3212075Y2008715D1*
X3211035Y2005715D1*
X3209971Y2002715D1*
X3208948Y1999715D1*
X3207982Y1996715D1*
X3206951Y1993715D1*
X3205941Y1990715D1*
X3204980Y1987715D1*
X3203950Y1984715D1*
X3202940Y1981715D1*
X3201980Y1978715D1*
X3200950Y1975715D1*
X3199932Y1972715D1*
X3198887Y1969715D1*
X3197546Y1966715D1*
X3195957Y1963715D1*
X3237957Y2038715D2*
X3236458Y2035715D1*
X3235211Y2032715D1*
X3234045Y2029715D1*
X3232977Y2026715D1*
X3231981Y2023715D1*
X3230849Y2020715D1*
X3229560Y2017715D1*
X3228250Y2014715D1*
X3227076Y2011715D1*
X3226035Y2008715D1*
X3224971Y2005715D1*
X3223948Y2002715D1*
X3222982Y1999715D1*
X3221951Y1996715D1*
X3220941Y1993715D1*
X3219968Y1990715D1*
X3218845Y1987715D1*
X3217558Y1984715D1*
X3216249Y1981715D1*
X3215075Y1978715D1*
X3214035Y1975715D1*
X3212971Y1972715D1*
X3211948Y1969715D1*
X3210982Y1966715D1*
X3209951Y1963715D1*
X3208941Y1960715D1*
X3207968Y1957715D1*
X3206845Y1954715D1*
X3205558Y1951715D1*
X3204249Y1948715D1*
X3203075Y1945715D1*
X3202035Y1942715D1*
X3200971Y1939715D1*
X3199948Y1936715D1*
X3198971Y1933715D1*
X3197845Y1930715D1*
X3196547Y1927715D1*
X3195144Y1924715D1*
X3193681Y1921715D1*
X3192187Y1918715D1*
X3190574Y1915715D1*
X3188570Y1912715D1*
X3185783Y1909715D1*
X3182114Y1906715D1*
X3177957Y1903715D1*
X3591957Y2038715D2*
Y2035715D1*
Y2032715D1*
Y2029715D1*
Y2026715D1*
Y2023715D1*
Y2020715D1*
Y2017715D1*
Y2014715D1*
Y2011715D1*
Y2008715D1*
Y2005715D1*
Y2002715D1*
Y1999715D1*
Y1996715D1*
Y1993715D1*
Y1990715D1*
Y1987715D1*
Y1984715D1*
Y1981715D1*
Y1978715D1*
Y1975715D1*
Y1972715D1*
Y1969715D1*
Y1966715D1*
Y1963715D1*
Y1960715D1*
Y1957715D1*
Y1954715D1*
Y1951715D1*
Y1948715D1*
Y1945715D1*
Y1942715D1*
X3603957Y2038715D2*
Y2035715D1*
Y2032715D1*
Y2029715D1*
Y2026715D1*
Y2023715D1*
Y2020715D1*
Y2017715D1*
Y2014715D1*
Y2011715D1*
Y2008715D1*
Y2005715D1*
Y2002715D1*
Y1999715D1*
Y1996715D1*
Y1993715D1*
Y1990715D1*
Y1987715D1*
Y1984715D1*
Y1981715D1*
Y1978715D1*
Y1975715D1*
Y1972715D1*
Y1969715D1*
Y1966715D1*
Y1963715D1*
Y1960715D1*
Y1957715D1*
Y1954715D1*
Y1951715D1*
Y1948715D1*
Y1945715D1*
Y1942715D1*
X3831957Y2038715D2*
X3833456Y2035715D1*
X3834714Y2032715D1*
X3835974Y2029715D1*
X3837319Y2026715D1*
X3838651Y2023715D1*
X3839833Y2020715D1*
X3840877Y2017715D1*
X3841942Y2014715D1*
X3842965Y2011715D1*
X3843943Y2008715D1*
X3845068Y2005715D1*
X3846355Y2002715D1*
X3847664Y1999715D1*
X3848838Y1996715D1*
X3849878Y1993715D1*
X3850942Y1990715D1*
X3851965Y1987715D1*
X3852931Y1984715D1*
X3853962Y1981715D1*
X3854973Y1978715D1*
X3855945Y1975715D1*
X3857069Y1972715D1*
X3858355Y1969715D1*
X3859664Y1966715D1*
X3860838Y1963715D1*
X3861878Y1960715D1*
X3862942Y1957715D1*
X3863965Y1954715D1*
X3864931Y1951715D1*
X3865951Y1948715D1*
X3866855Y1945715D1*
X3867422Y1942715D1*
X3867616Y1939715D1*
X3867357Y1936715D1*
X3866589Y1933715D1*
X3865435Y1930715D1*
X3863931Y1927715D1*
X3862082Y1924715D1*
X3857718Y1921715D1*
X3852165Y1918715D1*
X3847115Y1915715D1*
X3843312Y1912715D1*
X3842224Y1909715D1*
X3842888Y1906715D1*
X3843957Y1903715D1*
X3846957Y2038715D2*
X3848805Y2035715D1*
X3850422Y2032715D1*
X3851740Y2029715D1*
X3852842Y2026715D1*
X3853929Y2023715D1*
X3854961Y2020715D1*
X3855930Y2017715D1*
X3856962Y2014715D1*
X3857972Y2011715D1*
X3858934Y2008715D1*
X3859963Y2005715D1*
X3860973Y2002715D1*
X3861934Y1999715D1*
X3862963Y1996715D1*
X3863973Y1993715D1*
X3864934Y1990715D1*
X3865963Y1987715D1*
X3866973Y1984715D1*
X3867934Y1981715D1*
X3868963Y1978715D1*
X3869996Y1975715D1*
X3871188Y1972715D1*
X3872760Y1969715D1*
X3876143Y1966715D1*
X3879957Y1963715D1*
X3903957Y2038715D2*
X3902919Y2035715D1*
X3901921Y2032715D1*
X3900970Y2029715D1*
X3899946Y2026715D1*
X3898939Y2023715D1*
X3897967Y2020715D1*
X3896844Y2017715D1*
X3895558Y2014715D1*
X3894249Y2011715D1*
X3893075Y2008715D1*
X3892035Y2005715D1*
X3890971Y2002715D1*
X3889948Y1999715D1*
X3888982Y1996715D1*
X3887951Y1993715D1*
X3886941Y1990715D1*
X3885980Y1987715D1*
X3884950Y1984715D1*
X3883940Y1981715D1*
X3882980Y1978715D1*
X3881950Y1975715D1*
X3880932Y1972715D1*
X3879887Y1969715D1*
X3878546Y1966715D1*
X3876957Y1963715D1*
X3918957Y2038715D2*
X3917458Y2035715D1*
X3916211Y2032715D1*
X3915045Y2029715D1*
X3913977Y2026715D1*
X3912981Y2023715D1*
X3911849Y2020715D1*
X3910560Y2017715D1*
X3909250Y2014715D1*
X3908076Y2011715D1*
X3907035Y2008715D1*
X3905971Y2005715D1*
X3904948Y2002715D1*
X3903982Y1999715D1*
X3902951Y1996715D1*
X3901941Y1993715D1*
X3900968Y1990715D1*
X3899845Y1987715D1*
X3898558Y1984715D1*
X3897249Y1981715D1*
X3896075Y1978715D1*
X3895035Y1975715D1*
X3893971Y1972715D1*
X3892948Y1969715D1*
X3891982Y1966715D1*
X3890951Y1963715D1*
X3889941Y1960715D1*
X3888968Y1957715D1*
X3887845Y1954715D1*
X3886558Y1951715D1*
X3885249Y1948715D1*
X3884075Y1945715D1*
X3883035Y1942715D1*
X3881971Y1939715D1*
X3880948Y1936715D1*
X3879971Y1933715D1*
X3878845Y1930715D1*
X3877547Y1927715D1*
X3876144Y1924715D1*
X3874681Y1921715D1*
X3873187Y1918715D1*
X3871574Y1915715D1*
X3869570Y1912715D1*
X3866783Y1909715D1*
X3863114Y1906715D1*
X3858957Y1903715D1*
X2877957Y2029715D2*
X2872558Y2026715D1*
X2867909Y2023715D1*
X2864289Y2020715D1*
X2861544Y2017715D1*
X2859219Y2014715D1*
X2856957Y2011715D1*
X2886957Y2029715D2*
X2894652Y2026715D1*
X2900671Y2023715D1*
X2905184Y2020715D1*
X2907091Y2017715D1*
X2908581Y2014715D1*
X2909613Y2011715D1*
X2910283Y2008715D1*
X2906520Y2005715D1*
X2897351Y2002715D1*
X2885807Y1999715D1*
X2874152Y1996715D1*
X2864587Y1993715D1*
X2857569Y1990715D1*
X2852517Y1987715D1*
X2848701Y1984715D1*
X2845816Y1981715D1*
X2843564Y1978715D1*
X2842738Y1975715D1*
X2842290Y1972715D1*
X2842087Y1969715D1*
X2842005Y1966715D1*
X2841985Y1963715D1*
X2842091Y1960715D1*
X2842587Y1957715D1*
X2843804Y1954715D1*
X2845802Y1951715D1*
X2848427Y1948715D1*
X2851679Y1945715D1*
X2855618Y1942715D1*
X2859957Y1939715D1*
X2988957Y2029715D2*
X2983546Y2026715D1*
X2978803Y2023715D1*
X2974904Y2020715D1*
X2971811Y2017715D1*
X2969436Y2014715D1*
X2967621Y2011715D1*
X2966319Y2008715D1*
X2965468Y2005715D1*
X2964719Y2002715D1*
X2963840Y1999715D1*
X2963007Y1996715D1*
X2962459Y1993715D1*
X2962184Y1990715D1*
X2962160Y1987715D1*
X2962488Y1984715D1*
X2963186Y1981715D1*
X2963960Y1978715D1*
X2964597Y1975715D1*
X2965362Y1972715D1*
X2966614Y1969715D1*
X2968377Y1966715D1*
X2970641Y1963715D1*
X2973407Y1960715D1*
X2979857Y1957715D1*
X2989379Y1954715D1*
X3000957Y1951715D1*
X2994957Y2029715D2*
X3000355Y2026715D1*
X3005004Y2023715D1*
X3008615Y2020715D1*
X3011278Y2017715D1*
X3013326Y2014715D1*
X3015051Y2011715D1*
X3016535Y2008715D1*
X3017678Y2005715D1*
X3018364Y2002715D1*
X3018707Y1999715D1*
X3018859Y1996715D1*
X3018921Y1993715D1*
X3018944Y1990715D1*
X3018941Y1987715D1*
X3018838Y1984715D1*
X3018457Y1981715D1*
X3017727Y1978715D1*
X3016852Y1975715D1*
X3015935Y1972715D1*
X3014821Y1969715D1*
X3013413Y1966715D1*
X3011432Y1963715D1*
X3008794Y1960715D1*
X3001537Y1957715D1*
X2990471Y1954715D1*
X2976957Y1951715D1*
X3093957Y2029715D2*
X3088546Y2026715D1*
X3083803Y2023715D1*
X3079904Y2020715D1*
X3076811Y2017715D1*
X3074436Y2014715D1*
X3072621Y2011715D1*
X3071319Y2008715D1*
X3070468Y2005715D1*
X3069719Y2002715D1*
X3068840Y1999715D1*
X3068007Y1996715D1*
X3067459Y1993715D1*
X3067184Y1990715D1*
X3067160Y1987715D1*
X3067488Y1984715D1*
X3068186Y1981715D1*
X3068960Y1978715D1*
X3069597Y1975715D1*
X3070362Y1972715D1*
X3071614Y1969715D1*
X3073377Y1966715D1*
X3075641Y1963715D1*
X3078407Y1960715D1*
X3084857Y1957715D1*
X3094379Y1954715D1*
X3105957Y1951715D1*
X3099957Y2029715D2*
X3105355Y2026715D1*
X3110004Y2023715D1*
X3113615Y2020715D1*
X3116278Y2017715D1*
X3118326Y2014715D1*
X3120051Y2011715D1*
X3121535Y2008715D1*
X3122678Y2005715D1*
X3123364Y2002715D1*
X3123707Y1999715D1*
X3123859Y1996715D1*
X3123921Y1993715D1*
X3123944Y1990715D1*
X3123941Y1987715D1*
X3123838Y1984715D1*
X3123457Y1981715D1*
X3122727Y1978715D1*
X3121852Y1975715D1*
X3120935Y1972715D1*
X3119821Y1969715D1*
X3118413Y1966715D1*
X3116432Y1963715D1*
X3113794Y1960715D1*
X3106537Y1957715D1*
X3095471Y1954715D1*
X3081957Y1951715D1*
X3477957Y2029715D2*
X3472546Y2026715D1*
X3467792Y2023715D1*
X3463799Y2020715D1*
X3460429Y2017715D1*
X3457718Y2014715D1*
X3455840Y2011715D1*
X3454690Y2008715D1*
X3453807Y2005715D1*
X3452873Y2002715D1*
X3452019Y1999715D1*
X3451464Y1996715D1*
X3451174Y1993715D1*
X3451054Y1990715D1*
X3451106Y1987715D1*
X3451468Y1984715D1*
X3452179Y1981715D1*
X3452957Y1978715D1*
X3453596Y1975715D1*
X3454374Y1972715D1*
X3455719Y1969715D1*
X3457771Y1966715D1*
X3460489Y1963715D1*
X3464469Y1960715D1*
X3471377Y1957715D1*
X3482417Y1954715D1*
X3495957Y1951715D1*
X3486957Y2029715D2*
X3492367Y2026715D1*
X3497110Y2023715D1*
X3500997Y2020715D1*
X3503997Y2017715D1*
X3506095Y2014715D1*
X3507574Y2011715D1*
X3508814Y2008715D1*
X3509805Y2005715D1*
X3510417Y2002715D1*
X3510728Y1999715D1*
X3510867Y1996715D1*
X3510923Y1993715D1*
X3510945Y1990715D1*
X3510953Y1987715D1*
X3510944Y1984715D1*
X3510839Y1981715D1*
X3510457Y1978715D1*
X3509727Y1975715D1*
X3508841Y1972715D1*
X3507818Y1969715D1*
X3506310Y1966715D1*
X3504008Y1963715D1*
X3501052Y1960715D1*
X3493661Y1957715D1*
X3482519Y1954715D1*
X3468957Y1951715D1*
X3663957Y2029715D2*
X3658558Y2026715D1*
X3653909Y2023715D1*
X3650298Y2020715D1*
X3647647Y2017715D1*
X3645693Y2014715D1*
X3644245Y2011715D1*
X3643096Y2008715D1*
X3642004Y2005715D1*
X3641073Y2002715D1*
X3640484Y1999715D1*
X3640181Y1996715D1*
X3640045Y1993715D1*
X3639990Y1990715D1*
X3639980Y1987715D1*
X3640078Y1984715D1*
X3640458Y1981715D1*
X3641187Y1978715D1*
X3642061Y1975715D1*
X3642978Y1972715D1*
X3644092Y1969715D1*
X3645500Y1966715D1*
X3647481Y1963715D1*
X3650119Y1960715D1*
X3657377Y1957715D1*
X3668443Y1954715D1*
X3681957Y1951715D1*
X3669957Y2029715D2*
X3675716Y2026715D1*
X3680830Y2023715D1*
X3684881Y2020715D1*
X3688007Y2017715D1*
X3690474Y2014715D1*
X3692201Y2011715D1*
X3693276Y2008715D1*
X3694127Y2005715D1*
X3695048Y2002715D1*
X3695897Y1999715D1*
X3696451Y1996715D1*
X3696740Y1993715D1*
X3696859Y1990715D1*
X3696807Y1987715D1*
X3696446Y1984715D1*
X3695735Y1981715D1*
X3694956Y1978715D1*
X3694329Y1975715D1*
X3693657Y1972715D1*
X3692694Y1969715D1*
X3691361Y1966715D1*
X3689412Y1963715D1*
X3686790Y1960715D1*
X3679535Y1957715D1*
X3668470Y1954715D1*
X3654957Y1951715D1*
X3768957Y2029715D2*
X3763558Y2026715D1*
X3758909Y2023715D1*
X3755289Y2020715D1*
X3752544Y2017715D1*
X3750219Y2014715D1*
X3747957Y2011715D1*
X3777957Y2029715D2*
X3785652Y2026715D1*
X3791671Y2023715D1*
X3796184Y2020715D1*
X3798091Y2017715D1*
X3799581Y2014715D1*
X3800613Y2011715D1*
X3801283Y2008715D1*
X3797520Y2005715D1*
X3788351Y2002715D1*
X3776807Y1999715D1*
X3765152Y1996715D1*
X3755587Y1993715D1*
X3748569Y1990715D1*
X3743517Y1987715D1*
X3739701Y1984715D1*
X3736816Y1981715D1*
X3734564Y1978715D1*
X3733738Y1975715D1*
X3733290Y1972715D1*
X3733087Y1969715D1*
X3733005Y1966715D1*
X3732985Y1963715D1*
X3733091Y1960715D1*
X3733587Y1957715D1*
X3734804Y1954715D1*
X3736802Y1951715D1*
X3739427Y1948715D1*
X3742679Y1945715D1*
X3746618Y1942715D1*
X3750957Y1939715D1*
X3960957Y2029715D2*
X3955672Y2026715D1*
X3951419Y2023715D1*
X3948149Y2020715D1*
X3946863Y2017715D1*
X3946725Y2014715D1*
X3948132Y2011715D1*
X3952648Y2008715D1*
X3959176Y2005715D1*
X3967239Y2002715D1*
X3975851Y1999715D1*
X3984186Y1996715D1*
X3991457Y1993715D1*
X3997153Y1990715D1*
X4001265Y1987715D1*
X4004132Y1984715D1*
X4006159Y1981715D1*
X4007534Y1978715D1*
X4008312Y1975715D1*
X4008677Y1972715D1*
X4008736Y1969715D1*
X4008407Y1966715D1*
X4007608Y1963715D1*
X4006454Y1960715D1*
X4005098Y1957715D1*
X4003540Y1954715D1*
X4001543Y1951715D1*
X3998612Y1948715D1*
X3994284Y1945715D1*
X3988497Y1942715D1*
X3981957Y1939715D1*
X3972957Y2029715D2*
X3978355Y2026715D1*
X3982996Y2023715D1*
X3986540Y2020715D1*
X3989025Y2017715D1*
X3990957Y2014715D1*
X2730957Y2005715D2*
Y2002715D1*
Y1999715D1*
Y1996715D1*
Y1993715D1*
Y1990715D1*
Y1987715D1*
Y1984715D1*
Y1981715D1*
Y1978715D1*
Y1975715D1*
Y1972715D1*
Y1969715D1*
Y1966715D1*
Y1963715D1*
Y1960715D1*
Y1957715D1*
Y1954715D1*
Y1951715D1*
Y1948715D1*
Y1945715D1*
Y1942715D1*
X2802957Y2005715D2*
Y2002715D1*
Y1999715D1*
Y1996715D1*
Y1993715D1*
Y1990715D1*
Y1987715D1*
Y1984715D1*
Y1981715D1*
Y1978715D1*
Y1975715D1*
Y1972715D1*
Y1969715D1*
Y1966715D1*
Y1963715D1*
Y1960715D1*
Y1957715D1*
Y1954715D1*
Y1951715D1*
Y1948715D1*
Y1945715D1*
Y1942715D1*
X3327957Y2005715D2*
Y2002715D1*
Y1999715D1*
Y1996715D1*
Y1993715D1*
Y1990715D1*
Y1987715D1*
Y1984715D1*
Y1981715D1*
Y1978715D1*
Y1975715D1*
Y1972715D1*
Y1969715D1*
Y1966715D1*
Y1963715D1*
Y1960715D1*
Y1957715D1*
Y1954715D1*
Y1951715D1*
Y1948715D1*
Y1945715D1*
Y1942715D1*
X3399957Y2005715D2*
Y2002715D1*
Y1999715D1*
Y1996715D1*
Y1993715D1*
Y1990715D1*
Y1987715D1*
Y1984715D1*
Y1981715D1*
Y1978715D1*
Y1975715D1*
Y1972715D1*
Y1969715D1*
Y1966715D1*
Y1963715D1*
Y1960715D1*
Y1957715D1*
Y1954715D1*
Y1951715D1*
Y1948715D1*
Y1945715D1*
Y1942715D1*
X2913957Y1990715D2*
X2901179Y1987715D1*
X2888427Y1984715D1*
X2877103Y1981715D1*
X2868593Y1978715D1*
X2862157Y1975715D1*
X2859171Y1972715D1*
X2858024Y1969715D1*
X2857539Y1966715D1*
X2857517Y1963715D1*
X2859293Y1960715D1*
X2866501Y1957715D1*
X2878273Y1954715D1*
X2892957Y1951715D1*
X2910957Y1990715D2*
X2910945Y1987715D1*
X2910840Y1984715D1*
X2910457Y1981715D1*
X2909727Y1978715D1*
X2908852Y1975715D1*
X2907935Y1972715D1*
X2906809Y1969715D1*
X2905296Y1966715D1*
X2903397Y1963715D1*
X2898737Y1960715D1*
X2890774Y1957715D1*
X2878247Y1954715D1*
X2862957Y1951715D1*
X3804957Y1990715D2*
X3792179Y1987715D1*
X3779427Y1984715D1*
X3768103Y1981715D1*
X3759593Y1978715D1*
X3753157Y1975715D1*
X3750171Y1972715D1*
X3749024Y1969715D1*
X3748539Y1966715D1*
X3748517Y1963715D1*
X3750293Y1960715D1*
X3757501Y1957715D1*
X3769273Y1954715D1*
X3783957Y1951715D1*
X3801957Y1990715D2*
X3801945Y1987715D1*
X3801840Y1984715D1*
X3801457Y1981715D1*
X3800727Y1978715D1*
X3799852Y1975715D1*
X3798935Y1972715D1*
X3797809Y1969715D1*
X3796296Y1966715D1*
X3794397Y1963715D1*
X3789737Y1960715D1*
X3781774Y1957715D1*
X3769247Y1954715D1*
X3753957Y1951715D1*
X3936957Y1972715D2*
X3927957Y1969715D1*
X3929456Y1966715D1*
X3930714Y1963715D1*
X3931986Y1960715D1*
X3933448Y1957715D1*
X3935279Y1954715D1*
X3937692Y1951715D1*
X3940839Y1948715D1*
X3944891Y1945715D1*
X3949745Y1942715D1*
X3954957Y1939715D1*
X3942957Y1972715D2*
X3944108Y1969715D1*
X3945515Y1966715D1*
X3947501Y1963715D1*
X3950169Y1960715D1*
X3957948Y1957715D1*
X3970053Y1954715D1*
X3984957Y1951715D1*
X4038957Y1957715D2*
Y1954715D1*
Y1951715D1*
Y1948715D1*
Y1945715D1*
Y1942715D1*
X4056957Y1957715D2*
Y1954715D1*
Y1951715D1*
Y1948715D1*
Y1945715D1*
Y1942715D1*
X3693957Y1954715D2*
X3690945Y1951715D1*
X3687831Y1948715D1*
X3684367Y1945715D1*
X3680342Y1942715D1*
X3675957Y1939715D1*
X3696957Y1954715D2*
Y1951715D1*
Y1948715D1*
Y1945715D1*
Y1942715D1*
X2904957Y1951715D2*
X2901245Y1948715D1*
X2896544Y1945715D1*
X2890591Y1942715D1*
X2883957Y1939715D1*
X2910957Y1951715D2*
X2911508Y1948715D1*
X2912561Y1945715D1*
X2913957Y1942715D1*
X2964957Y1951715D2*
Y1948715D1*
Y1945715D1*
Y1942715D1*
Y1939715D1*
Y1936715D1*
Y1933715D1*
Y1930715D1*
Y1927715D1*
Y1924715D1*
Y1921715D1*
Y1918715D1*
Y1915715D1*
Y1912715D1*
Y1909715D1*
Y1906715D1*
Y1903715D1*
X2967957Y1951715D2*
X2971080Y1948715D1*
X2974546Y1945715D1*
X2978572Y1942715D1*
X2982957Y1939715D1*
X3069957Y1951715D2*
Y1948715D1*
Y1945715D1*
Y1942715D1*
Y1939715D1*
Y1936715D1*
Y1933715D1*
Y1930715D1*
Y1927715D1*
Y1924715D1*
Y1921715D1*
Y1918715D1*
Y1915715D1*
Y1912715D1*
Y1909715D1*
Y1906715D1*
Y1903715D1*
X3072957Y1951715D2*
X3076080Y1948715D1*
X3079546Y1945715D1*
X3083572Y1942715D1*
X3087957Y1939715D1*
X3795957Y1951715D2*
X3792245Y1948715D1*
X3787544Y1945715D1*
X3781591Y1942715D1*
X3774957Y1939715D1*
X3801957Y1951715D2*
X3802508Y1948715D1*
X3803561Y1945715D1*
X3804957Y1942715D1*
M02*
