G04 DipTrace 3.3.1.3*
G04 TopPaste.gbr*
%MOIN*%
G04 #@! TF.FileFunction,Paste,Top*
G04 #@! TF.Part,Single*
%AMOUTLINE2*
4,1,4,
0.033406,0.002783,
-0.002783,-0.033406,
-0.033406,-0.002783,
0.002783,0.033406,
0.033406,0.002783,
0*%
%AMOUTLINE5*
4,1,4,
-0.031547,-0.011336,
-0.005957,0.032989,
0.031547,0.011336,
0.005957,-0.032989,
-0.031547,-0.011336,
0*%
%AMOUTLINE8*
4,1,4,
-0.005957,-0.032989,
-0.031547,0.011336,
0.005957,0.032989,
0.031547,-0.011336,
-0.005957,-0.032989,
0*%
%AMOUTLINE17*
4,1,4,
0.000842,-0.030037,
-0.026433,-0.014289,
-0.000842,0.030037,
0.026433,0.014289,
0.000842,-0.030037,
0*%
%AMOUTLINE20*
4,1,4,
-0.026433,0.014289,
0.000842,0.030037,
0.026433,-0.014289,
-0.000842,-0.030037,
-0.026433,0.014289,
0*%
%AMOUTLINE23*
4,1,4,
-0.025591,-0.015748,
-0.025591,0.015748,
0.025591,0.015748,
0.025591,-0.015748,
-0.025591,-0.015748,
0*%
%AMOUTLINE26*
4,1,4,
0.035495,0.003475,
-0.003485,-0.035494,
-0.035495,-0.003475,
0.003485,0.035494,
0.035495,0.003475,
0*%
%ADD25R,0.03937X0.047244*%
%ADD45R,0.051181X0.031496*%
%ADD65R,0.059055X0.011811*%
%ADD67R,0.011811X0.059055*%
%ADD69R,0.023622X0.062992*%
%ADD71R,0.070866X0.015748*%
%ADD73R,0.017717X0.033465*%
%ADD75R,0.043307X0.031496*%
%ADD76R,0.043307X0.023622*%
%ADD78R,0.051181X0.025984*%
%ADD80R,0.049213X0.03937*%
%ADD88R,0.096457X0.061024*%
%ADD90R,0.03937X0.03937*%
%ADD92R,0.015748X0.031496*%
%ADD94R,0.098425X0.055118*%
%ADD96R,0.055118X0.098425*%
%ADD98R,0.043307X0.051181*%
%ADD100R,0.051181X0.043307*%
%ADD102R,0.031496X0.03937*%
%ADD110OUTLINE2*%
%ADD113OUTLINE5*%
%ADD116OUTLINE8*%
%ADD125OUTLINE17*%
%ADD128OUTLINE20*%
%ADD131OUTLINE23*%
%ADD134OUTLINE26*%
%FSLAX26Y26*%
G04*
G70*
G90*
G75*
G01*
G04 TopPaste*
%LPD*%
D25*
X3751829Y2853441D3*
Y3089661D3*
X3897499Y2853441D3*
Y3089661D3*
X3751829Y2534690D3*
Y2770911D3*
X3897499Y2534690D3*
Y2770911D3*
D102*
X3895580Y3409690D3*
Y3173470D3*
X3749911Y3409690D3*
Y3173470D3*
D100*
X2851934Y2928546D3*
Y3003349D3*
X2733080Y3265941D3*
Y3340744D3*
X2926829Y2559691D3*
Y2484887D3*
X2676934Y2934795D3*
Y3009598D3*
X2695579Y2559691D3*
Y2484887D3*
D98*
X3189330Y2778440D3*
X3114527D3*
D100*
X2814329Y3265941D3*
Y3340744D3*
D98*
X2939329Y3797190D3*
X2864526D3*
X4120579Y3734690D3*
X4045776D3*
D96*
X4120580Y3884690D3*
X4010344D3*
D100*
X3170580Y3947190D3*
Y3872387D3*
D94*
X3276829Y3953441D3*
Y3843205D3*
D98*
X3820580Y4090941D3*
X3895383D3*
D96*
X3821711Y3989808D3*
X3931948D3*
D98*
X3408079Y2253441D3*
X3333276D3*
D100*
X3445580Y2828441D3*
Y2903244D3*
D110*
X3601829Y2134691D3*
X3548935Y2187584D3*
X3745579Y2365941D3*
X3798473Y2313047D3*
D100*
X3564329Y3403441D3*
Y3478244D3*
D113*
X1949550Y3997093D3*
X2014331Y3959691D3*
D100*
X3508080Y4747190D3*
Y4672387D3*
D116*
X4964329Y3778441D3*
X4899549Y3741039D3*
D113*
X4833080Y2028440D3*
X4768299Y2065842D3*
D100*
X3283080Y1272190D3*
Y1346993D3*
D116*
X1826829Y2247191D3*
X1891610Y2284592D3*
D100*
X1533080Y4747190D3*
Y4672387D3*
D116*
X3976829Y5484690D3*
X3912049Y5447288D3*
D113*
X5814329Y3734691D3*
X5749549Y3772092D3*
D100*
X5251829Y1272190D3*
Y1346993D3*
D116*
X2808080Y540940D3*
X2872861Y578342D3*
D113*
X958080Y2284690D3*
X1022861Y2247288D3*
D116*
X2014329Y5484690D3*
X1949549Y5447288D3*
D113*
X4839329Y5440940D3*
X4774549Y5478342D3*
D100*
X6226829Y2972190D3*
Y3046993D3*
D116*
X4776829Y540940D3*
X4841610Y578342D3*
D113*
X1945580Y565941D3*
X2010361Y528539D3*
D100*
X558080Y3047190D3*
Y2972387D3*
D113*
X2876829Y5447191D3*
X2812049Y5484592D3*
D100*
X5245580Y4672190D3*
Y4746993D3*
D116*
X5764329Y2247191D3*
X5829110Y2284592D3*
D113*
X3901829Y559690D3*
X3966610Y522288D3*
D100*
X1539329Y1347190D3*
Y1272387D3*
D116*
X1033080Y3778441D3*
X968299Y3741039D3*
D100*
X3276829Y4672190D3*
Y4746993D3*
D116*
X4776829Y3953440D3*
X4841610Y3990842D3*
D113*
X4895580Y2284690D3*
X4960361Y2247288D3*
D100*
X3508080Y1347190D3*
Y1272387D3*
D116*
X2014329Y2065941D3*
X1949549Y2028539D3*
D113*
X1883080Y3734691D3*
X1818299Y3772092D3*
D98*
X2995580Y2178441D3*
X3070383D3*
D92*
X2983080Y2972190D3*
Y2921009D3*
X3045580Y2922190D3*
Y2973371D3*
D98*
X3014329Y4109690D3*
X3089133D3*
D90*
X3870580Y3603440D3*
X3980816D3*
D88*
X3839329Y3522190D3*
X4008621D3*
D80*
X3520580Y2897190D3*
Y2830261D3*
D78*
X2901829Y3097190D3*
X2978601D3*
Y3183411D3*
X2901829D3*
D76*
X3270136Y3316383D3*
Y3359690D3*
D75*
X3122499Y3338037D3*
D73*
X3683080Y3940941D3*
X3608277D3*
X3645678Y3850390D3*
X3533080Y4003441D3*
X3607883D3*
X3570482Y4093992D3*
D98*
X3070383Y2259690D3*
X2995580D3*
D100*
X3258080Y2215940D3*
Y2141136D3*
D98*
X3270580Y3253441D3*
X3345383D3*
X3114329Y2853441D3*
X3189133D3*
D100*
X2651829Y3265941D3*
Y3340744D3*
X2776831Y2484692D3*
Y2559495D3*
X2851829Y2559690D3*
Y2484887D3*
X2620580Y2484692D3*
Y2559495D3*
X2533080Y2559690D3*
Y2484887D3*
X2676928Y3153343D3*
Y3078539D3*
X2976829Y3265941D3*
Y3340744D3*
X2895580Y3340940D3*
Y3266136D3*
D98*
X3114329Y2928441D3*
X3189133D3*
D100*
X3526829Y3759690D3*
Y3684887D3*
D98*
X3089329Y4040941D3*
X3014526D3*
D100*
X3445580Y3759690D3*
Y3684887D3*
X3889329Y3765940D3*
Y3691136D3*
X3814329Y3765940D3*
Y3691136D3*
X3645580Y3478440D3*
Y3403636D3*
D98*
X3189329Y3078440D3*
X3114526D3*
X3189329Y3003441D3*
X3114526D3*
D71*
X2639329Y2840941D3*
Y2790941D3*
Y2740941D3*
Y2690941D3*
X2851928D3*
Y2740941D3*
Y2790941D3*
Y2840941D3*
D69*
X2895580Y3653441D3*
X2945580D3*
X2995580D3*
X3045580D3*
D67*
X3283079Y2365941D3*
X3314575D3*
X3346071D3*
X3377567D3*
X3409063D3*
X3440559D3*
X3472055D3*
X3503551D3*
D65*
X3558669Y2421059D3*
Y2452555D3*
Y2484051D3*
Y2515547D3*
Y2547043D3*
Y2578539D3*
Y2610035D3*
Y2641531D3*
D67*
X3503551Y2696650D3*
X3472055D3*
X3440559D3*
X3409063D3*
X3377567D3*
X3346071D3*
X3314575D3*
X3283079D3*
D65*
X3227961Y2641531D3*
Y2610035D3*
Y2578539D3*
Y2547043D3*
Y2515547D3*
Y2484051D3*
Y2452555D3*
Y2421059D3*
D125*
X2077358Y4013696D3*
X1964844Y4078656D3*
X2173815Y4180764D3*
X2061301Y4245724D3*
D45*
X3592873Y4644730D3*
Y4774651D3*
X3785786Y4644730D3*
Y4774651D3*
D128*
X4914824Y3650744D3*
X5027339Y3715705D3*
X5011281Y3483676D3*
X5123795Y3548636D3*
D125*
X4701301Y2005685D3*
X4813815Y1940724D3*
X4604844Y1838617D3*
X4717358Y1773656D3*
D45*
X3185786Y1374651D3*
Y1244730D3*
X2992873Y1374651D3*
Y1244730D3*
D128*
X1863835Y2368636D3*
X1751320Y2303676D3*
X1767378Y2535705D3*
X1654864Y2470744D3*
D45*
X1622873Y4644730D3*
Y4774651D3*
X1815786Y4644730D3*
Y4774651D3*
D128*
X3924824Y5360744D3*
X4037339Y5425705D3*
X4021281Y5193676D3*
X4133795Y5258636D3*
D125*
X5681301Y3715685D3*
X5793815Y3650724D3*
X5584844Y3548617D3*
X5697358Y3483656D3*
D45*
X5155786Y1374651D3*
Y1244730D3*
X4962873Y1374651D3*
Y1244730D3*
D128*
X2853835Y667416D3*
X2741320Y602455D3*
X2757378Y834484D3*
X2644864Y769524D3*
D125*
X1097358Y2303696D3*
X984844Y2368656D3*
X1193815Y2470764D3*
X1081301Y2535724D3*
D128*
X1964824Y5360744D3*
X2077339Y5425705D3*
X2061281Y5193676D3*
X2173795Y5258636D3*
D125*
X4701301Y5425685D3*
X4813815Y5360724D3*
X4604844Y5258617D3*
X4717358Y5193656D3*
D45*
X6135786Y3074651D3*
Y2944730D3*
X5942873Y3074651D3*
Y2944730D3*
D128*
X4813835Y661167D3*
X4701320Y596206D3*
X4717378Y828235D3*
X4604864Y763274D3*
D125*
X2077358Y593696D3*
X1964844Y658656D3*
X2173815Y760764D3*
X2061301Y825724D3*
D45*
X642873Y2944730D3*
Y3074651D3*
X835786Y2944730D3*
Y3074651D3*
D125*
X2741301Y5425685D3*
X2853815Y5360724D3*
X2644844Y5258617D3*
X2757358Y5193656D3*
D45*
X5155786Y4774651D3*
Y4644730D3*
X4962873Y4774651D3*
Y4644730D3*
D128*
X5793835Y2368636D3*
X5681320Y2303676D3*
X5697378Y2535705D3*
X5584864Y2470744D3*
D125*
X4037358Y590226D3*
X3924844Y655186D3*
X4133815Y757294D3*
X4021301Y822255D3*
D131*
X1622873Y1244730D3*
Y1374651D3*
X1815786Y1244730D3*
Y1374651D3*
D128*
X984895Y3650744D3*
X1097409Y3715705D3*
X1081352Y3483676D3*
X1193866Y3548636D3*
D45*
X3185786Y4774651D3*
Y4644730D3*
X2992873Y4774651D3*
Y4644730D3*
D128*
X4813835Y4078636D3*
X4701320Y4013676D3*
X4717378Y4245705D3*
X4604864Y4180744D3*
D125*
X5027358Y2303696D3*
X4914844Y2368656D3*
X5123815Y2470764D3*
X5011301Y2535724D3*
D45*
X3592873Y1244730D3*
Y1374651D3*
X3785786Y1244730D3*
Y1374651D3*
D128*
X1964824Y1932024D3*
X2077339Y1996984D3*
X2061281Y1764955D3*
X2173795Y1829916D3*
D125*
X1751301Y3715685D3*
X1863815Y3650724D3*
X1654844Y3548617D3*
X1767358Y3483656D3*
D134*
X3664329Y2190940D3*
X3731154Y2257743D3*
X3681051Y2307861D3*
X3614227Y2241058D3*
M02*
